<svg width="18" height="18" viewBox="0 0 18 18" fill="none" xmlns="http://www.w3.org/2000/svg">
    <path d="M8.99702 18.0022C8.58827 18.0022 8.20277 17.8664 7.88252 17.6084C7.78202 17.5274 7.68977 17.4352 7.60877 17.3347L6.47552 15.9247C6.34952 15.7679 6.16127 15.6779 5.96027 15.6779C5.93627 15.6779 5.91227 15.6794 5.88827 15.6817L4.08902 15.8774C4.02227 15.8849 3.95477 15.8887 3.88802 15.8887C3.48227 15.8887 3.09902 15.7537 2.77952 15.4994C2.40677 15.2024 2.17277 14.7779 2.11952 14.3047C2.10452 14.1719 2.10452 14.0377 2.11952 13.9057L2.31527 12.1079C2.33927 11.8829 2.24852 11.6639 2.07227 11.5222L0.662268 10.3889C0.291018 10.0904 0.0577675 9.66518 0.00601746 9.19193C-0.0457326 8.71868 0.0900175 8.25293 0.388518 7.88093C0.469518 7.78043 0.561768 7.68818 0.662268 7.60718L2.07227 6.47318C2.24927 6.33068 2.34002 6.11243 2.31527 5.88743L2.11952 4.08743C2.06627 3.61493 2.20127 3.14993 2.49902 2.77718C2.79677 2.40443 3.22127 2.17043 3.69452 2.11718C3.75977 2.10968 3.82652 2.10593 3.89252 2.10593C3.95852 2.10593 4.02527 2.10968 4.09127 2.11718L5.88902 2.31293C5.91227 2.31518 5.93627 2.31668 5.96027 2.31668C6.16127 2.31668 6.34877 2.22668 6.47477 2.06993L7.60877 0.66743C7.94852 0.24518 8.45627 0.00292969 9.00002 0.00292969C9.40502 0.00292969 9.80177 0.14243 10.1175 0.39668C10.218 0.47768 10.3088 0.56918 10.3898 0.66893L11.5238 2.07968C11.6498 2.23718 11.8365 2.32718 12.036 2.32718C12.06 2.32718 12.0848 2.32568 12.1088 2.32343L13.9095 2.12768C13.9755 2.12018 14.0423 2.11643 14.1075 2.11643C14.5155 2.11643 14.8995 2.25143 15.2198 2.50793C15.5918 2.80568 15.8258 3.23093 15.879 3.70493C15.8933 3.83618 15.8933 3.96893 15.879 4.10018L15.684 5.89793C15.66 6.12293 15.7508 6.34118 15.927 6.48293L17.3378 7.61768C17.7098 7.91618 17.9423 8.34218 17.994 8.81618C18.0458 9.29018 17.9093 9.75593 17.61 10.1272C17.5305 10.2269 17.439 10.3184 17.3385 10.3994L15.921 11.5297C15.7455 11.6707 15.6555 11.8889 15.6795 12.1147L15.8753 13.9147C15.9278 14.3864 15.7935 14.8522 15.4958 15.2249C15.198 15.5977 14.7735 15.8317 14.3003 15.8849C14.2343 15.8924 14.1683 15.8962 14.1015 15.8962C14.0355 15.8962 13.9695 15.8924 13.9043 15.8857L12.105 15.6899C12.0795 15.6869 12.0548 15.6854 12.03 15.6854C11.8313 15.6854 11.6453 15.7754 11.52 15.9322L10.3898 17.3384C10.0913 17.7104 9.66602 17.9429 9.19277 17.9947C9.12752 17.9984 9.06227 18.0022 8.99702 18.0022ZM5.96252 14.5529C6.50552 14.5529 7.01177 14.7959 7.35227 15.2204L8.48552 16.6304C8.51552 16.6679 8.54927 16.7017 8.58677 16.7309C8.70602 16.8262 8.84777 16.8772 8.99702 16.8772C9.02177 16.8772 9.04577 16.8757 9.07052 16.8727C9.24602 16.8539 9.40352 16.7677 9.51302 16.6304L10.6433 15.2249C10.983 14.8012 11.4885 14.5574 12.0308 14.5574C12.096 14.5574 12.1613 14.5612 12.2273 14.5679L14.0273 14.7637C14.0528 14.7667 14.0783 14.7682 14.1038 14.7682C14.127 14.7682 14.1503 14.7667 14.1735 14.7644C14.3498 14.7449 14.5065 14.6579 14.6168 14.5199C14.727 14.3819 14.7765 14.2102 14.757 14.0354L14.5613 12.2332C14.4953 11.6242 14.7413 11.0324 15.2183 10.6492L16.635 9.51893C16.6703 9.49043 16.704 9.45743 16.7333 9.42068C16.8443 9.28268 16.8953 9.11018 16.8758 8.93543C16.857 8.75993 16.7708 8.60318 16.6335 8.49218L15.2228 7.35818C14.7458 6.97568 14.4998 6.38318 14.5658 5.77493L14.7615 3.97493C14.7675 3.92543 14.7675 3.87668 14.7615 3.82868C14.742 3.65318 14.655 3.49568 14.5178 3.38543C14.4 3.29018 14.2575 3.24068 14.1075 3.24068C14.0828 3.24068 14.058 3.24218 14.0333 3.24443L12.2318 3.44018C12.1665 3.44693 12.102 3.45068 12.0375 3.45068C11.4945 3.45068 10.9883 3.20768 10.6478 2.78318L9.51452 1.37318C9.48452 1.33643 9.45077 1.30268 9.41402 1.27268C9.29627 1.17743 9.15302 1.12718 9.00152 1.12718C8.79977 1.12718 8.61227 1.21718 8.48627 1.37318L7.35227 2.77568C7.01102 3.19943 6.50552 3.44243 5.96402 3.44243C5.89952 3.44243 5.83427 3.43868 5.76827 3.43193L3.96827 3.23618C3.94277 3.23318 3.91802 3.23168 3.89327 3.23168C3.86852 3.23168 3.84377 3.23318 3.81902 3.23543C3.64502 3.25493 3.48827 3.34193 3.37802 3.47918C3.26852 3.61643 3.21827 3.78893 3.23777 3.96368L3.43352 5.76518C3.49952 6.37418 3.25352 6.96593 2.77652 7.34918L1.36727 8.48243C1.32977 8.51243 1.29602 8.54618 1.26602 8.58368C1.03802 8.86718 1.08377 9.28343 1.36727 9.51068L2.77727 10.6439C3.25427 11.0272 3.50027 11.6197 3.43427 12.2279L3.23852 14.0279C3.23252 14.0789 3.23252 14.1284 3.23852 14.1772C3.25802 14.3519 3.34502 14.5087 3.48227 14.6182C3.60002 14.7119 3.74177 14.7622 3.89102 14.7622C3.91577 14.7622 3.94127 14.7607 3.96677 14.7577L5.76827 14.5619C5.83352 14.5567 5.89877 14.5529 5.96252 14.5529Z" fill="#0077C8"/>
    <path d="M5.96252 14.5529C6.50552 14.5529 7.01177 14.7959 7.35227 15.2204L8.48552 16.6304C8.51552 16.6679 8.54927 16.7017 8.58677 16.7309C8.70602 16.8262 8.84777 16.8772 8.99702 16.8772C9.02177 16.8772 9.04577 16.8757 9.07052 16.8727C9.24602 16.8539 9.40352 16.7677 9.51302 16.6304L10.6433 15.2249C10.983 14.8012 11.4885 14.5574 12.0308 14.5574C12.096 14.5574 12.1613 14.5612 12.2273 14.5679L14.0273 14.7637C14.0528 14.7667 14.0783 14.7682 14.1038 14.7682C14.127 14.7682 14.1503 14.7667 14.1735 14.7644C14.3498 14.7449 14.5065 14.6579 14.6168 14.5199C14.727 14.3819 14.7765 14.2102 14.757 14.0354L14.5613 12.2332C14.4953 11.6242 14.7413 11.0324 15.2183 10.6492L16.635 9.51893C16.6703 9.49043 16.704 9.45743 16.7333 9.42068C16.8443 9.28268 16.8953 9.11018 16.8758 8.93543C16.857 8.75993 16.7708 8.60318 16.6335 8.49218L15.2228 7.35818C14.7458 6.97568 14.4998 6.38318 14.5658 5.77493L14.7615 3.97493C14.7675 3.92543 14.7675 3.87668 14.7615 3.82868C14.742 3.65318 14.655 3.49568 14.5178 3.38543C14.4 3.29018 14.2575 3.24068 14.1075 3.24068C14.0828 3.24068 14.058 3.24218 14.0333 3.24443L12.2318 3.44018C12.1665 3.44693 12.102 3.45068 12.0375 3.45068C11.4945 3.45068 10.9883 3.20768 10.6478 2.78318L9.51452 1.37318C9.48452 1.33643 9.45077 1.30268 9.41402 1.27268C9.29627 1.17743 9.15302 1.12718 9.00152 1.12718C8.79977 1.12718 8.61227 1.21718 8.48627 1.37318L7.35227 2.77568C7.01102 3.19943 6.50552 3.44243 5.96402 3.44243C5.89952 3.44243 5.83427 3.43868 5.76827 3.43193L3.96827 3.23618C3.94277 3.23318 3.91802 3.23168 3.89327 3.23168C3.86852 3.23168 3.84377 3.23318 3.81902 3.23543C3.64502 3.25493 3.48827 3.34193 3.37802 3.47918C3.26852 3.61643 3.21827 3.78893 3.23777 3.96368L3.43352 5.76518C3.49952 6.37418 3.25352 6.96593 2.77652 7.34918L1.36727 8.48243C1.32977 8.51243 1.29602 8.54618 1.26602 8.58368C1.03802 8.86718 1.08377 9.28343 1.36727 9.51068L2.77727 10.6439C3.25427 11.0272 3.50027 11.6197 3.43427 12.2279L3.23852 14.0279C3.23252 14.0789 3.23252 14.1284 3.23852 14.1772C3.25802 14.3519 3.34502 14.5087 3.48227 14.6182C3.60002 14.7119 3.74177 14.7622 3.89102 14.7622C3.91577 14.7622 3.94127 14.7607 3.96677 14.7577L5.76827 14.5619C5.83352 14.5567 5.89877 14.5529 5.96252 14.5529Z" fill="#0077C8"/>
    <path d="M8.37525 12.0839C8.13075 12.0839 7.89825 12.0059 7.70175 11.8582C7.65975 11.8267 7.62 11.7922 7.58325 11.7554L5.79 9.96293C5.6835 9.85718 5.625 9.71543 5.625 9.56543C5.625 9.41543 5.6835 9.27368 5.78925 9.16793C5.89575 9.06143 6.03675 9.00293 6.18675 9.00293C6.33675 9.00293 6.4785 9.06143 6.58425 9.16793L8.376 10.9589L11.3618 6.97793C11.4675 6.83693 11.6362 6.75293 11.8117 6.75293C11.934 6.75293 12.0503 6.79193 12.1485 6.86468C12.3975 7.05143 12.4478 7.40468 12.2618 7.65293L9.276 11.6339C9.09525 11.8739 8.832 12.0299 8.535 12.0727C8.48175 12.0802 8.4285 12.0839 8.37525 12.0839Z" fill="white"/>
</svg>
