<svg width="16" height="17" viewBox="0 0 16 17" fill="none" xmlns="http://www.w3.org/2000/svg">
    <mask id="path-1-inside-1_2016_211" fill="white">
        <path d="M7.99768 16.8763C7.63434 16.8763 7.29168 16.7556 7.00701 16.5263C6.91768 16.4543 6.83568 16.3723 6.76368 16.283L5.75634 15.0296C5.64434 14.8903 5.47701 14.8103 5.29834 14.8103C5.27701 14.8103 5.25568 14.8116 5.23434 14.8136L3.63501 14.9876C3.57568 14.9943 3.51568 14.9976 3.45634 14.9976C3.09568 14.9976 2.75501 14.8776 2.47101 14.6516C2.13967 14.3876 1.93167 14.0103 1.88434 13.5896C1.87101 13.4716 1.87101 13.3523 1.88434 13.235L2.05834 11.637C2.07967 11.437 1.99901 11.2423 1.84234 11.1163L0.589008 10.109C0.259008 9.84362 0.0516744 9.46562 0.00567437 9.04495C-0.0403256 8.62429 0.0803411 8.21029 0.345674 7.87962C0.417674 7.79029 0.499674 7.70829 0.589008 7.63629L1.84234 6.62829C1.99967 6.50162 2.08034 6.30762 2.05834 6.10762L1.88434 4.50762C1.83701 4.08762 1.95701 3.67429 2.22167 3.34295C2.48634 3.01162 2.86368 2.80362 3.28434 2.75629C3.34234 2.74962 3.40168 2.74629 3.46034 2.74629C3.51901 2.74629 3.57834 2.74962 3.63701 2.75629L5.23501 2.93029C5.25568 2.93229 5.27701 2.93362 5.29834 2.93362C5.47701 2.93362 5.64368 2.85362 5.75568 2.71429L6.76368 1.46762C7.06568 1.09229 7.51701 0.876953 8.00034 0.876953C8.36034 0.876953 8.71301 1.00095 8.99368 1.22695C9.08301 1.29895 9.16368 1.38029 9.23568 1.46895L10.2437 2.72295C10.3557 2.86295 10.5217 2.94295 10.699 2.94295C10.7203 2.94295 10.7423 2.94162 10.7637 2.93962L12.3643 2.76562C12.423 2.75895 12.4823 2.75562 12.5403 2.75562C12.903 2.75562 13.2443 2.87562 13.529 3.10362C13.8597 3.36829 14.0677 3.74629 14.115 4.16762C14.1277 4.28429 14.1277 4.40229 14.115 4.51895L13.9417 6.11695C13.9203 6.31695 14.001 6.51095 14.1577 6.63695L15.4117 7.64562C15.7423 7.91095 15.949 8.28962 15.995 8.71095C16.041 9.13229 15.9197 9.54629 15.6537 9.87629C15.583 9.96495 15.5017 10.0463 15.4123 10.1183L14.1523 11.123C13.9963 11.2483 13.9163 11.4423 13.9377 11.643L14.1117 13.243C14.1583 13.6623 14.039 14.0763 13.7743 14.4076C13.5097 14.739 13.1323 14.947 12.7117 14.9943C12.653 15.001 12.5943 15.0043 12.535 15.0043C12.4763 15.0043 12.4177 15.001 12.3597 14.995L10.7603 14.821C10.7377 14.8183 10.7157 14.817 10.6937 14.817C10.517 14.817 10.3517 14.897 10.2403 15.0363L9.23568 16.2863C8.97034 16.617 8.59234 16.8236 8.17168 16.8696C8.11368 16.873 8.05568 16.8763 7.99768 16.8763ZM5.30034 13.8103C5.78301 13.8103 6.23301 14.0263 6.53568 14.4036L7.54301 15.657C7.56968 15.6903 7.59968 15.7203 7.63301 15.7463C7.73901 15.831 7.86501 15.8763 7.99768 15.8763C8.01968 15.8763 8.04101 15.875 8.06301 15.8723C8.21901 15.8556 8.35901 15.779 8.45634 15.657L9.46101 14.4076C9.76301 14.031 10.2123 13.8143 10.6943 13.8143C10.7523 13.8143 10.8103 13.8176 10.869 13.8236L12.469 13.9976C12.4917 14.0003 12.5143 14.0016 12.537 14.0016C12.5577 14.0016 12.5783 14.0003 12.599 13.9983C12.7557 13.981 12.895 13.9036 12.993 13.781C13.091 13.6583 13.135 13.5056 13.1177 13.3503L12.9437 11.7483C12.885 11.207 13.1037 10.681 13.5277 10.3403L14.787 9.33562C14.8183 9.31029 14.8483 9.28095 14.8743 9.24829C14.973 9.12562 15.0183 8.97229 15.001 8.81695C14.9843 8.66095 14.9077 8.52162 14.7857 8.42295L13.5317 7.41495C13.1077 7.07495 12.889 6.54829 12.9477 6.00762L13.1217 4.40762C13.127 4.36362 13.127 4.32029 13.1217 4.27762C13.1043 4.12162 13.027 3.98162 12.905 3.88362C12.8003 3.79895 12.6737 3.75495 12.5403 3.75495C12.5183 3.75495 12.4963 3.75629 12.4743 3.75829L10.873 3.93229C10.815 3.93829 10.7577 3.94162 10.7003 3.94162C10.2177 3.94162 9.76768 3.72562 9.46501 3.34829L8.45768 2.09495C8.43101 2.06229 8.40101 2.03229 8.36834 2.00562C8.26368 1.92095 8.13634 1.87629 8.00168 1.87629C7.82234 1.87629 7.65568 1.95629 7.54368 2.09495L6.53568 3.34162C6.23234 3.71829 5.78301 3.93429 5.30168 3.93429C5.24434 3.93429 5.18634 3.93095 5.12768 3.92495L3.52768 3.75095C3.50501 3.74829 3.48301 3.74695 3.46101 3.74695C3.43901 3.74695 3.41701 3.74829 3.39501 3.75029C3.24034 3.76762 3.10101 3.84495 3.00301 3.96695C2.90568 4.08895 2.86101 4.24229 2.87834 4.39762L3.05234 5.99895C3.11101 6.54029 2.89234 7.06629 2.46834 7.40695L1.21567 8.41429C1.18234 8.44095 1.15234 8.47095 1.12567 8.50429C0.923008 8.75629 0.963675 9.12629 1.21567 9.32829L2.46901 10.3356C2.89301 10.6763 3.11168 11.203 3.05301 11.7436L2.87901 13.3436C2.87368 13.389 2.87368 13.433 2.87901 13.4763C2.89634 13.6316 2.97368 13.771 3.09568 13.8683C3.20034 13.9516 3.32634 13.9963 3.45901 13.9963C3.48101 13.9963 3.50368 13.995 3.52634 13.9923L5.12768 13.8183C5.18568 13.8136 5.24368 13.8103 5.30034 13.8103Z"/>
        <path d="M5.30034 13.8103C5.78301 13.8103 6.23301 14.0263 6.53568 14.4036L7.54301 15.657C7.56968 15.6903 7.59968 15.7203 7.63301 15.7463C7.73901 15.831 7.86501 15.8763 7.99768 15.8763C8.01968 15.8763 8.04101 15.875 8.06301 15.8723C8.21901 15.8556 8.35901 15.779 8.45634 15.657L9.46101 14.4076C9.76301 14.031 10.2123 13.8143 10.6943 13.8143C10.7523 13.8143 10.8103 13.8176 10.869 13.8236L12.469 13.9976C12.4917 14.0003 12.5143 14.0016 12.537 14.0016C12.5577 14.0016 12.5783 14.0003 12.599 13.9983C12.7557 13.981 12.895 13.9036 12.993 13.781C13.091 13.6583 13.135 13.5056 13.1177 13.3503L12.9437 11.7483C12.885 11.207 13.1037 10.681 13.5277 10.3403L14.787 9.33562C14.8183 9.31029 14.8483 9.28095 14.8743 9.24829C14.973 9.12562 15.0183 8.97229 15.001 8.81695C14.9843 8.66095 14.9077 8.52162 14.7857 8.42295L13.5317 7.41495C13.1077 7.07495 12.889 6.54829 12.9477 6.00762L13.1217 4.40762C13.127 4.36362 13.127 4.32029 13.1217 4.27762C13.1043 4.12162 13.027 3.98162 12.905 3.88362C12.8003 3.79895 12.6737 3.75495 12.5403 3.75495C12.5183 3.75495 12.4963 3.75629 12.4743 3.75829L10.873 3.93229C10.815 3.93829 10.7577 3.94162 10.7003 3.94162C10.2177 3.94162 9.76768 3.72562 9.46501 3.34829L8.45768 2.09495C8.43101 2.06229 8.40101 2.03229 8.36834 2.00562C8.26368 1.92095 8.13634 1.87629 8.00168 1.87629C7.82234 1.87629 7.65568 1.95629 7.54368 2.09495L6.53568 3.34162C6.23234 3.71829 5.78301 3.93429 5.30168 3.93429C5.24434 3.93429 5.18634 3.93095 5.12768 3.92495L3.52768 3.75095C3.50501 3.74829 3.48301 3.74695 3.46101 3.74695C3.43901 3.74695 3.41701 3.74829 3.39501 3.75029C3.24034 3.76762 3.10101 3.84495 3.00301 3.96695C2.90568 4.08895 2.86101 4.24229 2.87834 4.39762L3.05234 5.99895C3.11101 6.54029 2.89234 7.06629 2.46834 7.40695L1.21567 8.41429C1.18234 8.44095 1.15234 8.47095 1.12567 8.50429C0.923008 8.75629 0.963675 9.12629 1.21567 9.32829L2.46901 10.3356C2.89301 10.6763 3.11168 11.203 3.05301 11.7436L2.87901 13.3436C2.87368 13.389 2.87368 13.433 2.87901 13.4763C2.89634 13.6316 2.97368 13.771 3.09568 13.8683C3.20034 13.9516 3.32634 13.9963 3.45901 13.9963C3.48101 13.9963 3.50368 13.995 3.52634 13.9923L5.12768 13.8183C5.18568 13.8136 5.24368 13.8103 5.30034 13.8103Z"/>
    </mask>
    <path d="M7.99768 16.8763C7.63434 16.8763 7.29168 16.7556 7.00701 16.5263C6.91768 16.4543 6.83568 16.3723 6.76368 16.283L5.75634 15.0296C5.64434 14.8903 5.47701 14.8103 5.29834 14.8103C5.27701 14.8103 5.25568 14.8116 5.23434 14.8136L3.63501 14.9876C3.57568 14.9943 3.51568 14.9976 3.45634 14.9976C3.09568 14.9976 2.75501 14.8776 2.47101 14.6516C2.13967 14.3876 1.93167 14.0103 1.88434 13.5896C1.87101 13.4716 1.87101 13.3523 1.88434 13.235L2.05834 11.637C2.07967 11.437 1.99901 11.2423 1.84234 11.1163L0.589008 10.109C0.259008 9.84362 0.0516744 9.46562 0.00567437 9.04495C-0.0403256 8.62429 0.0803411 8.21029 0.345674 7.87962C0.417674 7.79029 0.499674 7.70829 0.589008 7.63629L1.84234 6.62829C1.99967 6.50162 2.08034 6.30762 2.05834 6.10762L1.88434 4.50762C1.83701 4.08762 1.95701 3.67429 2.22167 3.34295C2.48634 3.01162 2.86368 2.80362 3.28434 2.75629C3.34234 2.74962 3.40168 2.74629 3.46034 2.74629C3.51901 2.74629 3.57834 2.74962 3.63701 2.75629L5.23501 2.93029C5.25568 2.93229 5.27701 2.93362 5.29834 2.93362C5.47701 2.93362 5.64368 2.85362 5.75568 2.71429L6.76368 1.46762C7.06568 1.09229 7.51701 0.876953 8.00034 0.876953C8.36034 0.876953 8.71301 1.00095 8.99368 1.22695C9.08301 1.29895 9.16368 1.38029 9.23568 1.46895L10.2437 2.72295C10.3557 2.86295 10.5217 2.94295 10.699 2.94295C10.7203 2.94295 10.7423 2.94162 10.7637 2.93962L12.3643 2.76562C12.423 2.75895 12.4823 2.75562 12.5403 2.75562C12.903 2.75562 13.2443 2.87562 13.529 3.10362C13.8597 3.36829 14.0677 3.74629 14.115 4.16762C14.1277 4.28429 14.1277 4.40229 14.115 4.51895L13.9417 6.11695C13.9203 6.31695 14.001 6.51095 14.1577 6.63695L15.4117 7.64562C15.7423 7.91095 15.949 8.28962 15.995 8.71095C16.041 9.13229 15.9197 9.54629 15.6537 9.87629C15.583 9.96495 15.5017 10.0463 15.4123 10.1183L14.1523 11.123C13.9963 11.2483 13.9163 11.4423 13.9377 11.643L14.1117 13.243C14.1583 13.6623 14.039 14.0763 13.7743 14.4076C13.5097 14.739 13.1323 14.947 12.7117 14.9943C12.653 15.001 12.5943 15.0043 12.535 15.0043C12.4763 15.0043 12.4177 15.001 12.3597 14.995L10.7603 14.821C10.7377 14.8183 10.7157 14.817 10.6937 14.817C10.517 14.817 10.3517 14.897 10.2403 15.0363L9.23568 16.2863C8.97034 16.617 8.59234 16.8236 8.17168 16.8696C8.11368 16.873 8.05568 16.8763 7.99768 16.8763ZM5.30034 13.8103C5.78301 13.8103 6.23301 14.0263 6.53568 14.4036L7.54301 15.657C7.56968 15.6903 7.59968 15.7203 7.63301 15.7463C7.73901 15.831 7.86501 15.8763 7.99768 15.8763C8.01968 15.8763 8.04101 15.875 8.06301 15.8723C8.21901 15.8556 8.35901 15.779 8.45634 15.657L9.46101 14.4076C9.76301 14.031 10.2123 13.8143 10.6943 13.8143C10.7523 13.8143 10.8103 13.8176 10.869 13.8236L12.469 13.9976C12.4917 14.0003 12.5143 14.0016 12.537 14.0016C12.5577 14.0016 12.5783 14.0003 12.599 13.9983C12.7557 13.981 12.895 13.9036 12.993 13.781C13.091 13.6583 13.135 13.5056 13.1177 13.3503L12.9437 11.7483C12.885 11.207 13.1037 10.681 13.5277 10.3403L14.787 9.33562C14.8183 9.31029 14.8483 9.28095 14.8743 9.24829C14.973 9.12562 15.0183 8.97229 15.001 8.81695C14.9843 8.66095 14.9077 8.52162 14.7857 8.42295L13.5317 7.41495C13.1077 7.07495 12.889 6.54829 12.9477 6.00762L13.1217 4.40762C13.127 4.36362 13.127 4.32029 13.1217 4.27762C13.1043 4.12162 13.027 3.98162 12.905 3.88362C12.8003 3.79895 12.6737 3.75495 12.5403 3.75495C12.5183 3.75495 12.4963 3.75629 12.4743 3.75829L10.873 3.93229C10.815 3.93829 10.7577 3.94162 10.7003 3.94162C10.2177 3.94162 9.76768 3.72562 9.46501 3.34829L8.45768 2.09495C8.43101 2.06229 8.40101 2.03229 8.36834 2.00562C8.26368 1.92095 8.13634 1.87629 8.00168 1.87629C7.82234 1.87629 7.65568 1.95629 7.54368 2.09495L6.53568 3.34162C6.23234 3.71829 5.78301 3.93429 5.30168 3.93429C5.24434 3.93429 5.18634 3.93095 5.12768 3.92495L3.52768 3.75095C3.50501 3.74829 3.48301 3.74695 3.46101 3.74695C3.43901 3.74695 3.41701 3.74829 3.39501 3.75029C3.24034 3.76762 3.10101 3.84495 3.00301 3.96695C2.90568 4.08895 2.86101 4.24229 2.87834 4.39762L3.05234 5.99895C3.11101 6.54029 2.89234 7.06629 2.46834 7.40695L1.21567 8.41429C1.18234 8.44095 1.15234 8.47095 1.12567 8.50429C0.923008 8.75629 0.963675 9.12629 1.21567 9.32829L2.46901 10.3356C2.89301 10.6763 3.11168 11.203 3.05301 11.7436L2.87901 13.3436C2.87368 13.389 2.87368 13.433 2.87901 13.4763C2.89634 13.6316 2.97368 13.771 3.09568 13.8683C3.20034 13.9516 3.32634 13.9963 3.45901 13.9963C3.48101 13.9963 3.50368 13.995 3.52634 13.9923L5.12768 13.8183C5.18568 13.8136 5.24368 13.8103 5.30034 13.8103Z"
          stroke="white" stroke-width="2" mask="url(#path-1-inside-1_2016_211)"/>
    <path d="M5.30034 13.8103C5.78301 13.8103 6.23301 14.0263 6.53568 14.4036L7.54301 15.657C7.56968 15.6903 7.59968 15.7203 7.63301 15.7463C7.73901 15.831 7.86501 15.8763 7.99768 15.8763C8.01968 15.8763 8.04101 15.875 8.06301 15.8723C8.21901 15.8556 8.35901 15.779 8.45634 15.657L9.46101 14.4076C9.76301 14.031 10.2123 13.8143 10.6943 13.8143C10.7523 13.8143 10.8103 13.8176 10.869 13.8236L12.469 13.9976C12.4917 14.0003 12.5143 14.0016 12.537 14.0016C12.5577 14.0016 12.5783 14.0003 12.599 13.9983C12.7557 13.981 12.895 13.9036 12.993 13.781C13.091 13.6583 13.135 13.5056 13.1177 13.3503L12.9437 11.7483C12.885 11.207 13.1037 10.681 13.5277 10.3403L14.787 9.33562C14.8183 9.31029 14.8483 9.28095 14.8743 9.24829C14.973 9.12562 15.0183 8.97229 15.001 8.81695C14.9843 8.66095 14.9077 8.52162 14.7857 8.42295L13.5317 7.41495C13.1077 7.07495 12.889 6.54829 12.9477 6.00762L13.1217 4.40762C13.127 4.36362 13.127 4.32029 13.1217 4.27762C13.1043 4.12162 13.027 3.98162 12.905 3.88362C12.8003 3.79895 12.6737 3.75495 12.5403 3.75495C12.5183 3.75495 12.4963 3.75629 12.4743 3.75829L10.873 3.93229C10.815 3.93829 10.7577 3.94162 10.7003 3.94162C10.2177 3.94162 9.76768 3.72562 9.46501 3.34829L8.45768 2.09495C8.43101 2.06229 8.40101 2.03229 8.36834 2.00562C8.26368 1.92095 8.13634 1.87629 8.00168 1.87629C7.82234 1.87629 7.65568 1.95629 7.54368 2.09495L6.53568 3.34162C6.23234 3.71829 5.78301 3.93429 5.30168 3.93429C5.24434 3.93429 5.18634 3.93095 5.12768 3.92495L3.52768 3.75095C3.50501 3.74829 3.48301 3.74695 3.46101 3.74695C3.43901 3.74695 3.41701 3.74829 3.39501 3.75029C3.24034 3.76762 3.10101 3.84495 3.00301 3.96695C2.90568 4.08895 2.86101 4.24229 2.87834 4.39762L3.05234 5.99895C3.11101 6.54029 2.89234 7.06629 2.46834 7.40695L1.21567 8.41429C1.18234 8.44095 1.15234 8.47095 1.12567 8.50429C0.923008 8.75629 0.963675 9.12629 1.21567 9.32829L2.46901 10.3356C2.89301 10.6763 3.11168 11.203 3.05301 11.7436L2.87901 13.3436C2.87368 13.389 2.87368 13.433 2.87901 13.4763C2.89634 13.6316 2.97368 13.771 3.09568 13.8683C3.20034 13.9516 3.32634 13.9963 3.45901 13.9963C3.48101 13.9963 3.50368 13.995 3.52634 13.9923L5.12768 13.8183C5.18568 13.8136 5.24368 13.8103 5.30034 13.8103Z"
          stroke="white" stroke-width="2" mask="url(#path-1-inside-1_2016_211)"/>
    <path d="M8 10.4995C7.793 10.4995 7.625 10.3315 7.625 10.1245V9.9965C7.6245 9.5205 7.926 9.094 8.375 8.9355C8.8235 8.777 9.125 8.3505 9.125 7.875C9.125 7.575 9.008 7.2925 8.795 7.08C8.5825 6.867 8.3 6.75 8 6.75C7.6995 6.75 7.417 6.867 7.2045 7.0795C6.992 7.2915 6.875 7.574 6.875 7.8745C6.875 8.081 6.707 8.2495 6.5 8.2495C6.293 8.2495 6.125 8.081 6.125 7.8745C6.125 6.841 6.9665 6 8 6C8.501 6 8.972 6.195 9.326 6.5495C9.68 6.9035 9.875 7.3745 9.875 7.875C9.875 8.668 9.3725 9.378 8.625 9.6425C8.4755 9.6955 8.375 9.8375 8.375 9.996V10.1245C8.375 10.3315 8.207 10.4995 8 10.4995Z"
          fill="white"/>
    <path d="M8 12.375C8.31066 12.375 8.5625 12.1232 8.5625 11.8125C8.5625 11.5018 8.31066 11.25 8 11.25C7.68934 11.25 7.4375 11.5018 7.4375 11.8125C7.4375 12.1232 7.68934 12.375 8 12.375Z"
          fill="white"/>
</svg>
