<svg width="16" height="16" viewBox="0 0 16 16" fill="none" xmlns="http://www.w3.org/2000/svg">
<mask id="path-1-inside-1_1771_9722" fill="white">
<path d="M7.99768 16.0013C7.63434 16.0013 7.29168 15.8806 7.00701 15.6513C6.91768 15.5793 6.83568 15.4973 6.76368 15.408L5.75634 14.1546C5.64434 14.0153 5.47701 13.9353 5.29834 13.9353C5.27701 13.9353 5.25568 13.9366 5.23434 13.9386L3.63501 14.1126C3.57568 14.1193 3.51568 14.1226 3.45634 14.1226C3.09568 14.1226 2.75501 14.0026 2.47101 13.7766C2.13967 13.5126 1.93167 13.1353 1.88434 12.7146C1.87101 12.5966 1.87101 12.4773 1.88434 12.36L2.05834 10.762C2.07967 10.562 1.99901 10.3673 1.84234 10.2413L0.589008 9.23395C0.259008 8.96862 0.0516744 8.59062 0.00567437 8.16995C-0.0403256 7.74929 0.0803411 7.33529 0.345674 7.00462C0.417674 6.91529 0.499674 6.83329 0.589008 6.76129L1.84234 5.75329C1.99967 5.62662 2.08034 5.43262 2.05834 5.23262L1.88434 3.63262C1.83701 3.21262 1.95701 2.79929 2.22167 2.46795C2.48634 2.13662 2.86368 1.92862 3.28434 1.88129C3.34234 1.87462 3.40168 1.87129 3.46034 1.87129C3.51901 1.87129 3.57834 1.87462 3.63701 1.88129L5.23501 2.05529C5.25568 2.05729 5.27701 2.05862 5.29834 2.05862C5.47701 2.05862 5.64368 1.97862 5.75568 1.83929L6.76368 0.59262C7.06568 0.217286 7.51701 0.00195312 8.00034 0.00195312C8.36034 0.00195312 8.71301 0.125953 8.99368 0.351953C9.08301 0.423953 9.16368 0.505287 9.23568 0.593953L10.2437 1.84795C10.3557 1.98795 10.5217 2.06795 10.699 2.06795C10.7203 2.06795 10.7423 2.06662 10.7637 2.06462L12.3643 1.89062C12.423 1.88395 12.4823 1.88062 12.5403 1.88062C12.903 1.88062 13.2443 2.00062 13.529 2.22862C13.8597 2.49329 14.0677 2.87129 14.115 3.29262C14.1277 3.40929 14.1277 3.52729 14.115 3.64395L13.9417 5.24195C13.9203 5.44195 14.001 5.63595 14.1577 5.76195L15.4117 6.77062C15.7423 7.03595 15.949 7.41462 15.995 7.83595C16.041 8.25729 15.9197 8.67129 15.6537 9.00129C15.583 9.08995 15.5017 9.17129 15.4123 9.24329L14.1523 10.248C13.9963 10.3733 13.9163 10.5673 13.9377 10.768L14.1117 12.368C14.1583 12.7873 14.039 13.2013 13.7743 13.5326C13.5097 13.864 13.1323 14.072 12.7117 14.1193C12.653 14.126 12.5943 14.1293 12.535 14.1293C12.4763 14.1293 12.4177 14.126 12.3597 14.12L10.7603 13.946C10.7377 13.9433 10.7157 13.942 10.6937 13.942C10.517 13.942 10.3517 14.022 10.2403 14.1613L9.23568 15.4113C8.97034 15.742 8.59234 15.9486 8.17168 15.9946C8.11368 15.998 8.05568 16.0013 7.99768 16.0013ZM5.30034 12.9353C5.78301 12.9353 6.23301 13.1513 6.53568 13.5286L7.54301 14.782C7.56968 14.8153 7.59968 14.8453 7.63301 14.8713C7.73901 14.956 7.86501 15.0013 7.99768 15.0013C8.01968 15.0013 8.04101 15 8.06301 14.9973C8.21901 14.9806 8.35901 14.904 8.45634 14.782L9.46101 13.5326C9.76301 13.156 10.2123 12.9393 10.6943 12.9393C10.7523 12.9393 10.8103 12.9426 10.869 12.9486L12.469 13.1226C12.4917 13.1253 12.5143 13.1266 12.537 13.1266C12.5577 13.1266 12.5783 13.1253 12.599 13.1233C12.7557 13.106 12.895 13.0286 12.993 12.906C13.091 12.7833 13.135 12.6306 13.1177 12.4753L12.9437 10.8733C12.885 10.332 13.1037 9.80595 13.5277 9.46529L14.787 8.46062C14.8183 8.43529 14.8483 8.40595 14.8743 8.37329C14.973 8.25062 15.0183 8.09729 15.001 7.94195C14.9843 7.78595 14.9077 7.64662 14.7857 7.54795L13.5317 6.53995C13.1077 6.19995 12.889 5.67329 12.9477 5.13262L13.1217 3.53262C13.127 3.48862 13.127 3.44529 13.1217 3.40262C13.1043 3.24662 13.027 3.10662 12.905 3.00862C12.8003 2.92395 12.6737 2.87995 12.5403 2.87995C12.5183 2.87995 12.4963 2.88129 12.4743 2.88329L10.873 3.05729C10.815 3.06329 10.7577 3.06662 10.7003 3.06662C10.2177 3.06662 9.76768 2.85062 9.46501 2.47329L8.45768 1.21995C8.43101 1.18729 8.40101 1.15729 8.36834 1.13062C8.26368 1.04595 8.13634 1.00129 8.00168 1.00129C7.82234 1.00129 7.65568 1.08129 7.54368 1.21995L6.53568 2.46662C6.23234 2.84329 5.78301 3.05929 5.30168 3.05929C5.24434 3.05929 5.18634 3.05595 5.12768 3.04995L3.52768 2.87595C3.50501 2.87329 3.48301 2.87195 3.46101 2.87195C3.43901 2.87195 3.41701 2.87329 3.39501 2.87529C3.24034 2.89262 3.10101 2.96995 3.00301 3.09195C2.90568 3.21395 2.86101 3.36729 2.87834 3.52262L3.05234 5.12395C3.11101 5.66529 2.89234 6.19129 2.46834 6.53195L1.21567 7.53929C1.18234 7.56595 1.15234 7.59595 1.12567 7.62929C0.923008 7.88129 0.963675 8.25129 1.21567 8.45329L2.46901 9.46062C2.89301 9.80129 3.11168 10.328 3.05301 10.8686L2.87901 12.4686C2.87368 12.514 2.87368 12.558 2.87901 12.6013C2.89634 12.7566 2.97368 12.896 3.09568 12.9933C3.20034 13.0766 3.32634 13.1213 3.45901 13.1213C3.48101 13.1213 3.50368 13.12 3.52634 13.1173L5.12768 12.9433C5.18568 12.9386 5.24368 12.9353 5.30034 12.9353Z"/>
<path d="M5.30034 12.9353C5.78301 12.9353 6.23301 13.1513 6.53568 13.5286L7.54301 14.782C7.56968 14.8153 7.59968 14.8453 7.63301 14.8713C7.73901 14.956 7.86501 15.0013 7.99768 15.0013C8.01968 15.0013 8.04101 15 8.06301 14.9973C8.21901 14.9806 8.35901 14.904 8.45634 14.782L9.46101 13.5326C9.76301 13.156 10.2123 12.9393 10.6943 12.9393C10.7523 12.9393 10.8103 12.9426 10.869 12.9486L12.469 13.1226C12.4917 13.1253 12.5143 13.1266 12.537 13.1266C12.5577 13.1266 12.5783 13.1253 12.599 13.1233C12.7557 13.106 12.895 13.0286 12.993 12.906C13.091 12.7833 13.135 12.6306 13.1177 12.4753L12.9437 10.8733C12.885 10.332 13.1037 9.80595 13.5277 9.46529L14.787 8.46062C14.8183 8.43529 14.8483 8.40595 14.8743 8.37329C14.973 8.25062 15.0183 8.09729 15.001 7.94195C14.9843 7.78595 14.9077 7.64662 14.7857 7.54795L13.5317 6.53995C13.1077 6.19995 12.889 5.67329 12.9477 5.13262L13.1217 3.53262C13.127 3.48862 13.127 3.44529 13.1217 3.40262C13.1043 3.24662 13.027 3.10662 12.905 3.00862C12.8003 2.92395 12.6737 2.87995 12.5403 2.87995C12.5183 2.87995 12.4963 2.88129 12.4743 2.88329L10.873 3.05729C10.815 3.06329 10.7577 3.06662 10.7003 3.06662C10.2177 3.06662 9.76768 2.85062 9.46501 2.47329L8.45768 1.21995C8.43101 1.18729 8.40101 1.15729 8.36834 1.13062C8.26368 1.04595 8.13634 1.00129 8.00168 1.00129C7.82234 1.00129 7.65568 1.08129 7.54368 1.21995L6.53568 2.46662C6.23234 2.84329 5.78301 3.05929 5.30168 3.05929C5.24434 3.05929 5.18634 3.05595 5.12768 3.04995L3.52768 2.87595C3.50501 2.87329 3.48301 2.87195 3.46101 2.87195C3.43901 2.87195 3.41701 2.87329 3.39501 2.87529C3.24034 2.89262 3.10101 2.96995 3.00301 3.09195C2.90568 3.21395 2.86101 3.36729 2.87834 3.52262L3.05234 5.12395C3.11101 5.66529 2.89234 6.19129 2.46834 6.53195L1.21567 7.53929C1.18234 7.56595 1.15234 7.59595 1.12567 7.62929C0.923008 7.88129 0.963675 8.25129 1.21567 8.45329L2.46901 9.46062C2.89301 9.80129 3.11168 10.328 3.05301 10.8686L2.87901 12.4686C2.87368 12.514 2.87368 12.558 2.87901 12.6013C2.89634 12.7566 2.97368 12.896 3.09568 12.9933C3.20034 13.0766 3.32634 13.1213 3.45901 13.1213C3.48101 13.1213 3.50368 13.12 3.52634 13.1173L5.12768 12.9433C5.18568 12.9386 5.24368 12.9353 5.30034 12.9353Z"/>
</mask>
<path d="M7.99768 16.0013C7.63434 16.0013 7.29168 15.8806 7.00701 15.6513C6.91768 15.5793 6.83568 15.4973 6.76368 15.408L5.75634 14.1546C5.64434 14.0153 5.47701 13.9353 5.29834 13.9353C5.27701 13.9353 5.25568 13.9366 5.23434 13.9386L3.63501 14.1126C3.57568 14.1193 3.51568 14.1226 3.45634 14.1226C3.09568 14.1226 2.75501 14.0026 2.47101 13.7766C2.13967 13.5126 1.93167 13.1353 1.88434 12.7146C1.87101 12.5966 1.87101 12.4773 1.88434 12.36L2.05834 10.762C2.07967 10.562 1.99901 10.3673 1.84234 10.2413L0.589008 9.23395C0.259008 8.96862 0.0516744 8.59062 0.00567437 8.16995C-0.0403256 7.74929 0.0803411 7.33529 0.345674 7.00462C0.417674 6.91529 0.499674 6.83329 0.589008 6.76129L1.84234 5.75329C1.99967 5.62662 2.08034 5.43262 2.05834 5.23262L1.88434 3.63262C1.83701 3.21262 1.95701 2.79929 2.22167 2.46795C2.48634 2.13662 2.86368 1.92862 3.28434 1.88129C3.34234 1.87462 3.40168 1.87129 3.46034 1.87129C3.51901 1.87129 3.57834 1.87462 3.63701 1.88129L5.23501 2.05529C5.25568 2.05729 5.27701 2.05862 5.29834 2.05862C5.47701 2.05862 5.64368 1.97862 5.75568 1.83929L6.76368 0.59262C7.06568 0.217286 7.51701 0.00195312 8.00034 0.00195312C8.36034 0.00195312 8.71301 0.125953 8.99368 0.351953C9.08301 0.423953 9.16368 0.505287 9.23568 0.593953L10.2437 1.84795C10.3557 1.98795 10.5217 2.06795 10.699 2.06795C10.7203 2.06795 10.7423 2.06662 10.7637 2.06462L12.3643 1.89062C12.423 1.88395 12.4823 1.88062 12.5403 1.88062C12.903 1.88062 13.2443 2.00062 13.529 2.22862C13.8597 2.49329 14.0677 2.87129 14.115 3.29262C14.1277 3.40929 14.1277 3.52729 14.115 3.64395L13.9417 5.24195C13.9203 5.44195 14.001 5.63595 14.1577 5.76195L15.4117 6.77062C15.7423 7.03595 15.949 7.41462 15.995 7.83595C16.041 8.25729 15.9197 8.67129 15.6537 9.00129C15.583 9.08995 15.5017 9.17129 15.4123 9.24329L14.1523 10.248C13.9963 10.3733 13.9163 10.5673 13.9377 10.768L14.1117 12.368C14.1583 12.7873 14.039 13.2013 13.7743 13.5326C13.5097 13.864 13.1323 14.072 12.7117 14.1193C12.653 14.126 12.5943 14.1293 12.535 14.1293C12.4763 14.1293 12.4177 14.126 12.3597 14.12L10.7603 13.946C10.7377 13.9433 10.7157 13.942 10.6937 13.942C10.517 13.942 10.3517 14.022 10.2403 14.1613L9.23568 15.4113C8.97034 15.742 8.59234 15.9486 8.17168 15.9946C8.11368 15.998 8.05568 16.0013 7.99768 16.0013ZM5.30034 12.9353C5.78301 12.9353 6.23301 13.1513 6.53568 13.5286L7.54301 14.782C7.56968 14.8153 7.59968 14.8453 7.63301 14.8713C7.73901 14.956 7.86501 15.0013 7.99768 15.0013C8.01968 15.0013 8.04101 15 8.06301 14.9973C8.21901 14.9806 8.35901 14.904 8.45634 14.782L9.46101 13.5326C9.76301 13.156 10.2123 12.9393 10.6943 12.9393C10.7523 12.9393 10.8103 12.9426 10.869 12.9486L12.469 13.1226C12.4917 13.1253 12.5143 13.1266 12.537 13.1266C12.5577 13.1266 12.5783 13.1253 12.599 13.1233C12.7557 13.106 12.895 13.0286 12.993 12.906C13.091 12.7833 13.135 12.6306 13.1177 12.4753L12.9437 10.8733C12.885 10.332 13.1037 9.80595 13.5277 9.46529L14.787 8.46062C14.8183 8.43529 14.8483 8.40595 14.8743 8.37329C14.973 8.25062 15.0183 8.09729 15.001 7.94195C14.9843 7.78595 14.9077 7.64662 14.7857 7.54795L13.5317 6.53995C13.1077 6.19995 12.889 5.67329 12.9477 5.13262L13.1217 3.53262C13.127 3.48862 13.127 3.44529 13.1217 3.40262C13.1043 3.24662 13.027 3.10662 12.905 3.00862C12.8003 2.92395 12.6737 2.87995 12.5403 2.87995C12.5183 2.87995 12.4963 2.88129 12.4743 2.88329L10.873 3.05729C10.815 3.06329 10.7577 3.06662 10.7003 3.06662C10.2177 3.06662 9.76768 2.85062 9.46501 2.47329L8.45768 1.21995C8.43101 1.18729 8.40101 1.15729 8.36834 1.13062C8.26368 1.04595 8.13634 1.00129 8.00168 1.00129C7.82234 1.00129 7.65568 1.08129 7.54368 1.21995L6.53568 2.46662C6.23234 2.84329 5.78301 3.05929 5.30168 3.05929C5.24434 3.05929 5.18634 3.05595 5.12768 3.04995L3.52768 2.87595C3.50501 2.87329 3.48301 2.87195 3.46101 2.87195C3.43901 2.87195 3.41701 2.87329 3.39501 2.87529C3.24034 2.89262 3.10101 2.96995 3.00301 3.09195C2.90568 3.21395 2.86101 3.36729 2.87834 3.52262L3.05234 5.12395C3.11101 5.66529 2.89234 6.19129 2.46834 6.53195L1.21567 7.53929C1.18234 7.56595 1.15234 7.59595 1.12567 7.62929C0.923008 7.88129 0.963675 8.25129 1.21567 8.45329L2.46901 9.46062C2.89301 9.80129 3.11168 10.328 3.05301 10.8686L2.87901 12.4686C2.87368 12.514 2.87368 12.558 2.87901 12.6013C2.89634 12.7566 2.97368 12.896 3.09568 12.9933C3.20034 13.0766 3.32634 13.1213 3.45901 13.1213C3.48101 13.1213 3.50368 13.12 3.52634 13.1173L5.12768 12.9433C5.18568 12.9386 5.24368 12.9353 5.30034 12.9353Z" stroke="#5E6873" stroke-width="2" mask="url(#path-1-inside-1_1771_9722)"/>
<path d="M5.30034 12.9353C5.78301 12.9353 6.23301 13.1513 6.53568 13.5286L7.54301 14.782C7.56968 14.8153 7.59968 14.8453 7.63301 14.8713C7.73901 14.956 7.86501 15.0013 7.99768 15.0013C8.01968 15.0013 8.04101 15 8.06301 14.9973C8.21901 14.9806 8.35901 14.904 8.45634 14.782L9.46101 13.5326C9.76301 13.156 10.2123 12.9393 10.6943 12.9393C10.7523 12.9393 10.8103 12.9426 10.869 12.9486L12.469 13.1226C12.4917 13.1253 12.5143 13.1266 12.537 13.1266C12.5577 13.1266 12.5783 13.1253 12.599 13.1233C12.7557 13.106 12.895 13.0286 12.993 12.906C13.091 12.7833 13.135 12.6306 13.1177 12.4753L12.9437 10.8733C12.885 10.332 13.1037 9.80595 13.5277 9.46529L14.787 8.46062C14.8183 8.43529 14.8483 8.40595 14.8743 8.37329C14.973 8.25062 15.0183 8.09729 15.001 7.94195C14.9843 7.78595 14.9077 7.64662 14.7857 7.54795L13.5317 6.53995C13.1077 6.19995 12.889 5.67329 12.9477 5.13262L13.1217 3.53262C13.127 3.48862 13.127 3.44529 13.1217 3.40262C13.1043 3.24662 13.027 3.10662 12.905 3.00862C12.8003 2.92395 12.6737 2.87995 12.5403 2.87995C12.5183 2.87995 12.4963 2.88129 12.4743 2.88329L10.873 3.05729C10.815 3.06329 10.7577 3.06662 10.7003 3.06662C10.2177 3.06662 9.76768 2.85062 9.46501 2.47329L8.45768 1.21995C8.43101 1.18729 8.40101 1.15729 8.36834 1.13062C8.26368 1.04595 8.13634 1.00129 8.00168 1.00129C7.82234 1.00129 7.65568 1.08129 7.54368 1.21995L6.53568 2.46662C6.23234 2.84329 5.78301 3.05929 5.30168 3.05929C5.24434 3.05929 5.18634 3.05595 5.12768 3.04995L3.52768 2.87595C3.50501 2.87329 3.48301 2.87195 3.46101 2.87195C3.43901 2.87195 3.41701 2.87329 3.39501 2.87529C3.24034 2.89262 3.10101 2.96995 3.00301 3.09195C2.90568 3.21395 2.86101 3.36729 2.87834 3.52262L3.05234 5.12395C3.11101 5.66529 2.89234 6.19129 2.46834 6.53195L1.21567 7.53929C1.18234 7.56595 1.15234 7.59595 1.12567 7.62929C0.923008 7.88129 0.963675 8.25129 1.21567 8.45329L2.46901 9.46062C2.89301 9.80129 3.11168 10.328 3.05301 10.8686L2.87901 12.4686C2.87368 12.514 2.87368 12.558 2.87901 12.6013C2.89634 12.7566 2.97368 12.896 3.09568 12.9933C3.20034 13.0766 3.32634 13.1213 3.45901 13.1213C3.48101 13.1213 3.50368 13.12 3.52634 13.1173L5.12768 12.9433C5.18568 12.9386 5.24368 12.9353 5.30034 12.9353Z" stroke="#5E6873" stroke-width="2" mask="url(#path-1-inside-1_1771_9722)"/>
<path d="M8 9.6245C7.793 9.6245 7.625 9.4565 7.625 9.2495V9.1215C7.6245 8.6455 7.926 8.219 8.375 8.0605C8.8235 7.902 9.125 7.4755 9.125 7C9.125 6.7 9.008 6.4175 8.795 6.205C8.5825 5.992 8.3 5.875 8 5.875C7.6995 5.875 7.417 5.992 7.2045 6.2045C6.992 6.4165 6.875 6.699 6.875 6.9995C6.875 7.206 6.707 7.3745 6.5 7.3745C6.293 7.3745 6.125 7.206 6.125 6.9995C6.125 5.966 6.9665 5.125 8 5.125C8.501 5.125 8.972 5.32 9.326 5.6745C9.68 6.0285 9.875 6.4995 9.875 7C9.875 7.793 9.3725 8.503 8.625 8.7675C8.4755 8.8205 8.375 8.9625 8.375 9.121V9.2495C8.375 9.4565 8.207 9.6245 8 9.6245Z" fill="#5E6873"/>
<path d="M8 11.5C8.31066 11.5 8.5625 11.2482 8.5625 10.9375C8.5625 10.6268 8.31066 10.375 8 10.375C7.68934 10.375 7.4375 10.6268 7.4375 10.9375C7.4375 11.2482 7.68934 11.5 8 11.5Z" fill="#5E6873"/>
</svg>
