<svg width="24" height="24" viewBox="0 0 24 24" fill="none" xmlns="http://www.w3.org/2000/svg">
    <path d="M2.521 16.3453L17.021 1.84527C17.3569 1.50152 17.7577 1.22775 18.2 1.03978C18.6424 0.851798 19.1176 0.753338 19.5982 0.750083C20.0788 0.746829 20.5553 0.838845 21.0002 1.02082C21.4451 1.20279 21.8494 1.4711 22.19 1.81027C22.5292 2.15083 22.7975 2.55522 22.9795 3.00007C23.1614 3.44493 23.2534 3.92144 23.2502 4.40206C23.2469 4.88269 23.1485 5.35791 22.9605 5.80026C22.7725 6.24261 22.4987 6.64333 22.155 6.97927L7.655 21.4793L0.75 23.2503L2.521 16.3453ZM2.521 16.3453L7.66 21.4742M16.606 2.26025L21.74 7.39425M14.512 4.35425L19.646 9.48825"
          stroke="currentColor" stroke-width="1.5" stroke-linecap="round" stroke-linejoin="round"/>
</svg>
