<svg width="24" height="24" viewBox="0 0 24 24" fill="none" xmlns="http://www.w3.org/2000/svg">
    <g clip-path="url(#clip0_3873_988)">
        <path d="M5.25 24C5.134 24 5.018 23.973 4.914 23.921C4.659 23.793 4.5 23.536 4.5 23.25V19.5H2.25C1.009 19.5 0 18.491 0 17.25V2.25C0 1.009 1.009 0 2.25 0H21.75C22.991 0 24 1.009 24 2.25V17.25C24 18.491 22.991 19.5 21.75 19.5H11.5L5.7 23.85C5.571 23.947 5.411 24 5.25 24ZM2.25 1.5C1.836 1.5 1.5 1.836 1.5 2.25V17.25C1.5 17.664 1.836 18 2.25 18H5.25C5.664 18 6 18.336 6 18.75V21.75L10.8 18.15C10.929 18.053 11.089 18 11.25 18H21.75C22.164 18 22.5 17.664 22.5 17.25V2.25C22.5 1.836 22.164 1.5 21.75 1.5H2.25Z" fill="currentColor"/>
        <path d="M9.63278 8.00002C9.34478 8.00002 9.08678 7.83902 8.95978 7.58102C8.78478 7.22502 8.48178 6.95802 8.10578 6.83002C7.94978 6.77702 7.78778 6.75002 7.62478 6.75002C7.39778 6.75002 7.17878 6.80202 6.97178 6.90302C6.67878 7.04702 6.43778 7.28702 6.29378 7.58102C6.16678 7.83902 5.90878 8.00002 5.62078 8.00002C5.50678 8.00002 5.39278 7.97402 5.28978 7.92302C4.91878 7.74102 4.76578 7.29102 4.94778 6.91902C5.23778 6.32902 5.72178 5.84502 6.31078 5.55602C6.72578 5.35202 7.16778 5.24902 7.62478 5.24902C7.95278 5.24902 8.27778 5.30302 8.59078 5.41002C9.34578 5.66702 9.95478 6.20302 10.3058 6.91902C10.4878 7.29002 10.3348 7.74002 9.96378 7.92302C9.86178 7.97402 9.74678 8.00002 9.63278 8.00002Z" fill="currentColor"/>
        <path d="M14.6141 8.00002C14.5001 8.00002 14.3851 7.97302 14.2831 7.92302C14.1041 7.83502 13.9691 7.68202 13.9041 7.49202C13.8391 7.30202 13.8521 7.09902 13.9411 6.91902C14.2311 6.32902 14.7151 5.84602 15.3041 5.55602C15.7191 5.35202 16.1611 5.24902 16.6181 5.24902C16.9461 5.24902 17.2711 5.30302 17.5841 5.41002C18.3391 5.66702 18.9481 6.20302 19.2991 6.91902C19.3871 7.09902 19.4001 7.30202 19.3361 7.49202C19.2711 7.68202 19.1371 7.83502 18.9571 7.92302C18.8541 7.97402 18.7401 8.00002 18.6261 8.00002C18.3381 8.00002 18.0801 7.83902 17.9531 7.58002C17.7781 7.22502 17.4751 6.95802 17.0991 6.83002C16.9431 6.77702 16.7811 6.75002 16.6181 6.75002C16.3911 6.75002 16.1711 6.80202 15.9641 6.90302C15.6711 7.04702 15.4301 7.28802 15.2861 7.58102C15.1601 7.84002 14.9021 8.00002 14.6141 8.00002Z" fill="currentColor"/>
        <path d="M12.1248 15.01C10.5088 15.01 8.95384 14.404 7.74784 13.304C7.44284 13.025 7.42084 12.55 7.69884 12.245C7.84084 12.089 8.04284 12 8.25284 12C8.44084 12 8.61984 12.07 8.75784 12.196C9.68584 13.043 10.8818 13.509 12.1248 13.509C13.3678 13.509 14.5628 13.042 15.4918 12.196C15.6298 12.07 15.8088 12 15.9968 12C16.2068 12 16.4088 12.089 16.5508 12.245C16.6858 12.393 16.7558 12.585 16.7458 12.785C16.7368 12.985 16.6498 13.17 16.5018 13.305C15.2958 14.404 13.7408 15.01 12.1248 15.01Z" fill="currentColor"/>
    </g>
    <defs>
        <clipPath id="clip0_3873_988">
            <rect width="24" height="24" fill="white"/>
        </clipPath>
    </defs>
</svg>
