<svg width="24" height="24" viewBox="0 0 24 24" fill="none" xmlns="http://www.w3.org/2000/svg">
    <path fill-rule="evenodd" clip-rule="evenodd"
          d="M12 1.5C10.0109 1.5 8.10322 2.29018 6.6967 3.6967C5.46796 4.92544 4.70961 6.53662 4.53752 8.25047C4.92175 8.26007 5.28821 8.41689 5.56066 8.68934C5.84196 8.97065 6 9.35217 6 9.75V17.25C6 17.6478 5.84197 18.0294 5.56066 18.3107C5.27935 18.592 4.89782 18.75 4.5 18.75H3.75C2.75544 18.75 1.80161 18.3549 1.09835 17.6517C0.395088 16.9484 0 15.9946 0 15V12C0 11.0054 0.395088 10.0516 1.09835 9.34835C1.6284 8.8183 2.30078 8.46332 3.02566 8.32061C3.18746 6.18215 4.10908 4.163 5.63604 2.63604C7.32387 0.948211 9.61305 0 12 0C14.3869 0 16.6761 0.948211 18.364 2.63604C19.8909 4.163 20.8125 6.18215 20.9743 8.32061C21.6992 8.46332 22.3716 8.8183 22.9017 9.34835C23.6049 10.0516 24 11.0054 24 12V15C24 15.9946 23.6049 16.9484 22.9017 17.6517C22.3779 18.1754 21.7151 18.5283 21 18.6742V18.75C21 19.7446 20.6049 20.6984 19.9017 21.4017C19.1984 22.1049 18.2446 22.5 17.25 22.5H15.6213C15.5105 22.8134 15.3305 23.1014 15.091 23.341C14.669 23.7629 14.0967 24 13.5 24H12C11.4033 24 10.831 23.7629 10.409 23.341C9.98705 22.919 9.75 22.3467 9.75 21.75C9.75 21.1533 9.98705 20.581 10.409 20.159C10.831 19.7371 11.4033 19.5 12 19.5H13.5C14.0967 19.5 14.669 19.7371 15.091 20.159C15.3305 20.3986 15.5105 20.6866 15.6213 21H17.25C17.8467 21 18.419 20.7629 18.841 20.341C19.2629 19.919 19.5 19.3467 19.5 18.75C19.1022 18.75 18.7206 18.592 18.4393 18.3107C18.158 18.0294 18 17.6478 18 17.25V9.75C18 9.35218 18.158 8.97065 18.4393 8.68934C18.7118 8.41689 19.0783 8.26007 19.4625 8.25047C19.2904 6.53662 18.532 4.92544 17.3033 3.6967C15.8968 2.29018 13.9891 1.5 12 1.5ZM3.75 9.75C3.15326 9.75 2.58097 9.98705 2.15901 10.409C1.73705 10.831 1.5 11.4033 1.5 12V15C1.5 15.5967 1.73705 16.169 2.15901 16.591C2.58097 17.0129 3.15326 17.25 3.75 17.25H4.5V9.75H3.75ZM20.25 9.75H19.5V17.25H20.25C20.8467 17.25 21.419 17.0129 21.841 16.591C22.2629 16.169 22.5 15.5967 22.5 15V12C22.5 11.4033 22.2629 10.831 21.841 10.409C21.419 9.98705 20.8467 9.75 20.25 9.75ZM9 9.235C9.41421 9.235 9.75 9.57079 9.75 9.985V11.297C9.75 11.7112 9.41421 12.047 9 12.047C8.58579 12.047 8.25 11.7112 8.25 11.297V9.985C8.25 9.57079 8.58579 9.235 9 9.235ZM15 9.235C15.4142 9.235 15.75 9.57079 15.75 9.985V11.297C15.75 11.7112 15.4142 12.047 15 12.047C14.5858 12.047 14.25 11.7112 14.25 11.297V9.985C14.25 9.57079 14.5858 9.235 15 9.235ZM8.44564 14.9368C8.72464 14.6307 9.199 14.6087 9.50516 14.8876C10.1874 15.5093 11.0771 15.8539 12 15.8539C12.9229 15.8539 13.8126 15.5093 14.4948 14.8876C14.801 14.6087 15.2754 14.6307 15.5544 14.9368C15.8333 15.243 15.8113 15.7174 15.5052 15.9964C14.5467 16.8698 13.2967 17.3539 12 17.3539C10.7033 17.3539 9.45329 16.8698 8.49484 15.9964C8.18867 15.7174 8.16665 15.243 8.44564 14.9368ZM12 21C11.8011 21 11.6103 21.079 11.4697 21.2197C11.329 21.3603 11.25 21.5511 11.25 21.75C11.25 21.9489 11.329 22.1397 11.4697 22.2803C11.6103 22.421 11.8011 22.5 12 22.5H13.5C13.6989 22.5 13.8897 22.421 14.0303 22.2803C14.171 22.1397 14.25 21.9489 14.25 21.75C14.25 21.5511 14.171 21.3603 14.0303 21.2197C13.8897 21.079 13.6989 21 13.5 21H12Z"
          fill="currentColor"/>
</svg>
