<svg width="24" height="24" viewBox="0 0 24 24" fill="none" xmlns="http://www.w3.org/2000/svg">
    <path fill-rule="evenodd" clip-rule="evenodd"
          d="M7.00929 0.0583673C6.60129 0.186367 6.33729 0.408367 6.15229 0.778367L6.00929 1.06337V7.77337L6.14629 8.05137C6.22729 8.21637 6.35529 8.39237 6.45829 8.48337C6.76529 8.74937 6.92229 8.79537 7.73429 8.85737C8.91629 8.94637 9.60429 9.07537 10.2693 9.33237C10.8253 9.54637 11.1163 9.75737 11.3433 10.1094C11.4963 10.3474 11.7513 10.5014 11.9913 10.4994C12.1028 10.4929 12.2119 10.4641 12.3121 10.4146C12.4122 10.3651 12.5014 10.296 12.5743 10.2114C12.8543 9.84237 13.0503 9.66537 13.3553 9.50837C14.0383 9.15537 14.9123 8.95737 16.2173 8.86137C16.8173 8.81637 17.0093 8.78737 17.1763 8.71337C17.4641 8.57129 17.7014 8.34444 17.8563 8.06337L17.9673 7.85437L17.9793 4.52537C17.9923 0.841367 17.9983 0.933367 17.7263 0.577367C17.5469 0.3351 17.2956 0.155586 17.0083 0.0643674C16.7843 -0.00663265 16.7113 -0.00863265 16.0763 0.0373673C14.3463 0.160367 13.1723 0.480367 12.2483 1.08037L11.9873 1.24937L11.7843 1.10337C10.9953 0.536367 9.67129 0.162367 8.03029 0.0423673C7.33329 -0.00963265 7.21829 -0.00763265 7.00929 0.0583673ZM8.53029 1.58737C9.60329 1.70837 10.6073 2.04537 11.0613 2.43737L11.2383 2.59037V8.11337L10.8493 7.95737C10.4103 7.78011 9.95422 7.64842 9.48829 7.56437C9.02029 7.47637 8.15229 7.37537 7.85629 7.37537C7.755 7.37848 7.65369 7.37009 7.55429 7.35037C7.49529 7.32737 7.48829 7.02937 7.48829 4.40837V1.49137L7.83229 1.51937C8.02129 1.53537 8.33529 1.56537 8.53029 1.58737ZM16.4883 4.41637V7.33237L16.3943 7.35137C16.3433 7.36137 16.1073 7.38037 15.8703 7.39437C14.8413 7.45137 13.6533 7.71537 12.8943 8.05637L12.7373 8.12637L12.7483 5.34637L12.7593 2.56637L12.9673 2.40837C13.3833 2.09437 13.9923 1.85637 14.8053 1.69037C15.3106 1.60149 15.8204 1.53974 16.3323 1.50537L16.4883 1.50037V4.41637ZM3.46729 4.56237C3.30429 4.63937 3.23629 4.69937 3.11129 4.87537L3.00929 5.02137L2.99729 9.60437C2.99029 12.5134 3.00129 14.3174 3.02729 14.5424C3.06029 14.8184 3.10729 14.9724 3.24129 15.2434C3.33529 15.4344 3.40629 15.5954 3.39829 15.6014L3.15329 15.7804C2.86329 15.9914 2.52529 16.3584 2.29829 16.7084C2.06329 17.0724 0.223289 20.7584 0.111289 21.0904C-0.00971104 21.4494 0.00928894 22.1904 0.149289 22.5484C0.428289 23.2634 1.11829 23.8344 1.84929 23.9554C2.05729 23.9904 4.82229 23.9994 12.1763 23.9914L22.2173 23.9794L22.5043 23.8684C23.4083 23.5164 23.9883 22.6914 23.9883 21.7554C23.9883 21.2404 23.9353 21.1094 22.8363 18.9094C21.6033 16.4424 21.5053 16.2914 20.7943 15.7504L20.5793 15.5874L20.7203 15.3214C21.0033 14.7884 20.9903 15.0674 20.9783 9.76537L20.9673 4.97337L20.8473 4.81537C20.5203 4.38737 19.9203 4.41437 19.6113 4.87037L19.5093 5.02137L19.4883 9.77137C19.4733 13.2754 19.4543 14.5434 19.4193 14.6044C19.3433 14.7344 19.1453 14.9074 19.0173 14.9564C18.9353 14.9864 16.7733 15.0004 11.9983 15.0004H5.09829L4.91529 14.9124C4.79754 14.8519 4.69656 14.7633 4.62129 14.6544L4.50929 14.4854L4.48829 9.72937L4.46729 4.97337L4.34729 4.81537C4.13829 4.54137 3.75029 4.42937 3.46729 4.56237ZM19.1563 16.5864C19.5743 16.7014 20.0203 16.9844 20.2833 17.3004C20.4403 17.4884 20.7363 18.0404 21.4893 19.5464C22.3353 21.2374 22.4883 21.5714 22.4883 21.7254C22.4883 22.0494 22.3423 22.2814 22.0423 22.4334C21.9203 22.4944 21.0443 22.5004 12.0033 22.5004H2.09829L1.91729 22.4134C1.79475 22.3488 1.69234 22.2518 1.62126 22.1329C1.55018 22.014 1.51318 21.8779 1.51429 21.7394C1.51429 21.5534 1.61429 21.3334 2.52529 19.5124C3.53229 17.5014 3.53729 17.4904 3.83529 17.1904C4.15529 16.8674 4.51429 16.6574 4.91629 16.5604C5.08729 16.5184 6.60929 16.5064 11.9893 16.5044C18.7923 16.5004 18.8463 16.5014 19.1563 16.5864ZM10.2173 19.5624C9.91529 19.7044 9.76629 19.9334 9.76629 20.2544C9.76629 20.5554 9.90929 20.7884 10.1723 20.9154C10.3403 20.9964 10.4223 21.0004 11.9913 20.9994C13.8423 20.9984 13.8603 20.9954 14.0973 20.6854C14.2023 20.5484 14.2173 20.4914 14.2173 20.2504C14.2173 20.0094 14.2023 19.9524 14.0973 19.8154C13.8603 19.5044 13.8433 19.5024 11.9883 19.5034C10.6603 19.5034 10.3183 19.5154 10.2173 19.5624Z"
          fill="currentColor"/>
</svg>
