<svg width="24" height="24" viewBox="0 0 24 24" fill="none" xmlns="http://www.w3.org/2000/svg">
    <path fill-rule="evenodd" clip-rule="evenodd"
          d="M11.3518 0.0636003C10.6068 0.2046 9.99881 0.5086 9.47681 0.9976C8.57981 1.8396 8.15981 2.9406 8.28081 4.1356C8.37381 5.0556 8.77181 5.8416 9.47681 6.5036C9.99332 6.99242 10.6448 7.3147 11.3468 7.4286C11.5158 7.4556 11.6538 7.4896 11.6538 7.5036C11.6538 7.5186 11.5358 7.5416 11.3928 7.5546C11.0498 7.5876 10.4568 7.7606 10.0778 7.9396C8.91381 8.4866 8.00581 9.5706 7.65781 10.8296C7.52881 11.2936 7.47881 12.0636 7.49381 13.3336L7.50781 14.4796L7.62681 14.6556C7.81681 14.9346 8.00081 15.0006 8.59381 15.0006H9.09181L9.43181 17.7276C9.67081 19.6396 9.79381 20.5006 9.84481 20.6066C9.90345 20.711 9.9852 20.8006 10.0838 20.8686L10.2518 20.9796L11.9328 20.9916C13.5128 21.0026 13.6258 20.9986 13.7948 20.9236C13.9728 20.8446 14.1618 20.6426 14.2098 20.4796C14.2298 20.4136 14.9038 15.1106 14.9038 15.0236C14.9038 15.0106 15.1238 15.0006 15.3928 14.9996C15.9658 14.9986 16.1548 14.9366 16.3458 14.6856L16.4658 14.5276L16.4778 13.0726C16.4928 11.2196 16.4478 10.9116 16.0248 10.0166C15.7298 9.3926 15.0958 8.6626 14.5178 8.2796C13.9388 7.8966 13.1818 7.6106 12.6068 7.5566C12.3138 7.5296 12.2078 7.4586 12.4598 7.4586C12.8958 7.4586 13.7728 7.1016 14.2808 6.7166C15.8138 5.5556 16.1938 3.3076 15.1278 1.7026C14.6124 0.9235 13.8282 0.36142 12.9248 0.1236C12.4788 0.0106003 11.7718 -0.0163997 11.3518 0.0636003ZM12.5188 1.5636C13.7768 1.8596 14.5318 3.1946 14.1388 4.4306C13.9886 4.90774 13.6825 5.32061 13.2696 5.60295C12.8567 5.8853 12.3609 6.02076 11.8618 5.9876C11.1288 5.9436 10.5068 5.5756 10.0878 4.9386C9.58681 4.1776 9.64981 3.0656 10.2338 2.3636C10.8218 1.6546 11.6598 1.3606 12.5188 1.5636ZM3.95981 3.0436C3.37581 3.1486 2.86181 3.4236 2.40181 3.8756C2.05381 4.2166 1.79181 4.6226 1.65681 5.0276C1.46781 5.5976 1.46781 6.4036 1.65681 6.9736C1.85881 7.5806 2.41981 8.2646 2.98781 8.5956C3.28181 8.7666 3.83381 8.9586 4.03281 8.9586C4.10581 8.9586 4.14781 8.9766 4.13281 9.0006C4.11881 9.0236 4.04481 9.0426 3.96881 9.0426C3.89281 9.0426 3.65381 9.0876 3.43681 9.1426C2.09081 9.4836 1.05581 10.3256 0.442812 11.5786C0.124812 12.2296 0.0188125 12.7636 0.0128125 13.7506L0.0078125 14.4796L0.126812 14.6556C0.317812 14.9366 0.499812 15.0006 1.10381 15.0006C1.38381 15.0006 1.61181 15.0056 1.61281 15.0106C1.63281 15.2996 2.29281 18.9976 2.34381 19.1046C2.38381 19.1886 2.49181 19.3076 2.58381 19.3686L2.75181 19.4796L4.43281 19.4916C6.78781 19.5076 6.60681 19.6286 6.90881 17.8436C7.01981 17.1856 7.11081 16.5756 7.11181 16.4886C7.11281 15.9326 6.54981 15.5916 6.03881 15.8386C5.73581 15.9856 5.67481 16.1246 5.52981 17.0006C5.45981 17.4246 5.39181 17.8226 5.37881 17.8856L5.35481 18.0006H3.63181L3.32581 16.1566C2.95081 13.8926 2.96181 13.9436 2.82881 13.7856C2.64381 13.5656 2.44381 13.5026 1.93081 13.5016L1.47881 13.5006L1.50881 13.2406C1.55281 12.8616 1.63781 12.5606 1.79481 12.2296C2.43581 10.8816 3.86581 10.2356 5.34881 10.6236C5.64081 10.7006 5.71681 10.7066 5.86981 10.6656C6.11781 10.5986 6.25681 10.4886 6.35781 10.2786C6.4347 10.1267 6.4569 9.95302 6.42065 9.78672C6.3844 9.62041 6.29193 9.47168 6.15881 9.3656C6.02681 9.2546 5.50981 9.0966 5.14381 9.0556C4.88581 9.0266 4.73281 8.9626 4.91781 8.9606C5.13481 8.9576 5.54481 8.8286 5.86581 8.6626C6.22159 8.47828 6.5375 8.22554 6.79541 7.91889C7.05333 7.61224 7.24818 7.2577 7.36881 6.8756C7.50981 6.4236 7.50981 5.5776 7.36881 5.1256C7.07181 4.1696 6.24381 3.3616 5.29981 3.1076C4.99681 3.0256 4.25481 2.9906 3.95981 3.0436ZM18.9598 3.0436C18.3758 3.1486 17.8618 3.4236 17.4018 3.8756C17.0538 4.2166 16.7918 4.6226 16.6568 5.0276C16.4678 5.5976 16.4678 6.4036 16.6568 6.9736C16.8588 7.5806 17.4198 8.2646 17.9878 8.5956C18.2818 8.7666 18.8338 8.9586 19.0328 8.9586C19.2438 8.9586 19.1288 9.0286 18.8738 9.0556C18.5298 9.0926 18.0618 9.2236 17.8848 9.3326C17.5788 9.5216 17.4648 10.0416 17.6638 10.3346C17.9058 10.6896 18.1498 10.7486 18.7658 10.5996C19.5138 10.4186 20.1568 10.4936 20.8618 10.8426C21.1458 10.9836 21.2908 11.0926 21.5928 11.3946C22.1348 11.9366 22.4168 12.5166 22.4748 13.2116L22.4978 13.4936L21.9998 13.5076C21.5418 13.5206 21.4878 13.5306 21.3338 13.6326C21.2349 13.7013 21.1528 13.7916 21.0938 13.8966C21.0428 14.0036 20.3828 17.7016 20.3628 17.9906C20.3618 17.9956 19.9718 18.0006 19.4958 18.0006H18.6298L18.4898 17.1446C18.4128 16.6736 18.3198 16.2296 18.2828 16.1576C17.9718 15.5486 17.0498 15.6636 16.8998 16.3306C16.8708 16.4596 16.9058 16.7586 17.0658 17.7216C17.1778 18.3966 17.3028 19.0176 17.3428 19.1026C17.4018 19.2085 17.4843 19.2994 17.5838 19.3686L17.7518 19.4796L19.4328 19.4916C21.0128 19.5026 21.1258 19.4986 21.2948 19.4236C21.4091 19.3677 21.5103 19.2883 21.5918 19.1906C21.7008 19.0476 21.7298 18.9116 22.0458 17.0186L22.3828 15.0006L22.8828 14.9996C23.4668 14.9986 23.6538 14.9376 23.8458 14.6856C23.9638 14.5306 23.9658 14.5186 23.9798 13.8996C24.0028 12.9186 23.8828 12.2656 23.5558 11.5826C23.2397 10.9278 22.7746 10.3562 22.1978 9.9136C21.6318 9.4846 20.7538 9.1246 20.0998 9.0556C19.8538 9.0296 19.7268 8.9586 19.9258 8.9586C20.1318 8.9586 20.5468 8.8276 20.8658 8.6626C21.2216 8.47828 21.5375 8.22554 21.7954 7.91889C22.0533 7.61224 22.2482 7.2577 22.3688 6.8756C22.5098 6.4236 22.5098 5.5776 22.3688 5.1256C22.0718 4.1696 21.2438 3.3616 20.2998 3.1076C19.9968 3.0256 19.2548 2.9906 18.9598 3.0436ZM4.92781 4.5656C5.34581 4.6876 5.74381 5.0636 5.90181 5.4846C6.27581 6.4846 5.46581 7.5656 4.39981 7.4906C3.15381 7.4026 2.55481 5.9226 3.39181 4.9966C3.58179 4.78813 3.8265 4.63721 4.09806 4.56101C4.36961 4.48481 4.65711 4.4864 4.92781 4.5656ZM19.9278 4.5656C20.3458 4.6876 20.7438 5.0636 20.9018 5.4846C21.2758 6.4846 20.4658 7.5656 19.3998 7.4906C18.1538 7.4026 17.5548 5.9226 18.3918 4.9966C18.5818 4.78813 18.8265 4.63721 19.0981 4.56101C19.3696 4.48481 19.6571 4.4864 19.9278 4.5656ZM12.8828 9.1256C13.3722 9.28465 13.8138 9.56416 14.1669 9.93845C14.5201 10.3127 14.7735 10.7698 14.9038 11.2676C14.9748 11.5486 14.9868 11.7366 14.9868 12.5456V13.4936L14.4938 13.5076C14.0418 13.5206 13.9868 13.5306 13.8338 13.6326C13.7352 13.7006 13.6535 13.7902 13.5948 13.8946C13.5438 14.0006 13.4208 14.8616 13.1818 16.7736L12.8418 19.5006H11.9978C11.5338 19.5006 11.1538 19.4906 11.1538 19.4776C11.1538 19.3906 10.4798 14.0876 10.4598 14.0216C10.4128 13.8626 10.2248 13.6576 10.0538 13.5806C9.92081 13.5196 9.78181 13.5026 9.43481 13.5016L8.98681 13.5006V12.6566C8.98781 11.4966 9.07281 11.0446 9.39181 10.5056C9.60891 10.1427 9.89723 9.82746 10.2394 9.57895C10.5816 9.33044 10.9705 9.15377 11.3828 9.0596C11.7438 8.9756 12.5058 9.0096 12.8828 9.1256ZM0.417812 20.3366C0.306063 20.3982 0.208597 20.4827 0.131812 20.5846C0.0358125 20.7226 0.0198125 20.7896 0.0208125 21.0256C0.0278125 22.1966 1.57981 22.9726 5.00781 23.5196C8.88881 24.1386 14.6978 24.1556 18.7158 23.5586C21.2028 23.1896 22.7728 22.6846 23.4758 22.0266C23.8458 21.6806 23.9628 21.4446 23.9648 21.0396C23.9658 20.7546 23.9538 20.7086 23.8458 20.5656C23.7434 20.4244 23.5945 20.3239 23.4253 20.2818C23.256 20.2398 23.0774 20.2588 22.9208 20.3356C22.7438 20.4216 22.5288 20.6776 22.5288 20.8036C22.5288 21.0616 21.5428 21.4716 20.2128 21.7666C17.8068 22.2986 14.8268 22.5376 11.2368 22.4866C10.4242 22.4774 9.61172 22.4547 8.79981 22.4186C5.60481 22.2106 3.04181 21.7406 1.85981 21.1456C1.56381 20.9966 1.51281 20.9506 1.46581 20.7926C1.38081 20.5026 1.04381 20.2536 0.736812 20.2516C0.625988 20.2591 0.517659 20.2879 0.417812 20.3366Z"
          fill="currentColor"/>
</svg>
