<svg width="24" height="24" viewBox="0 0 24 24" fill="none" xmlns="http://www.w3.org/2000/svg">
    <g clip-path="url(#clip0_3873_941)">
        <path d="M10.0322 6.7251C11.3021 6.7252 12.4919 7.21682 13.3867 8.10986C15.0022 9.72188 15.2446 12.2004 13.999 14.0854L13.873 14.2661C13.8273 14.3292 13.7509 14.3686 13.6709 14.3687C13.6177 14.3687 13.5686 14.353 13.5244 14.3208H13.5234C13.4696 14.2817 13.4352 14.2249 13.4248 14.1587C13.4141 14.0901 13.4297 14.0258 13.4688 13.9722C14.7065 12.2702 14.5244 9.95136 13.0342 8.46436C12.2335 7.66591 11.1663 7.22423 10.0322 7.22412C8.89472 7.22412 7.82517 7.66763 7.02344 8.46924L2.24902 13.2437C0.592011 14.9009 0.592052 17.5962 2.24902 19.2534C3.05024 20.0546 4.11991 20.4966 5.25488 20.4966C6.38983 20.4966 7.45954 20.0546 8.26074 19.2534L9.19238 18.3218C9.24098 18.2732 9.30226 18.2485 9.36914 18.2485C9.43691 18.2486 9.49768 18.2742 9.54395 18.3208L9.54492 18.3218C9.59351 18.3704 9.61914 18.4317 9.61914 18.4985C9.61903 18.5662 9.59334 18.6271 9.54688 18.6733L9.54492 18.6743L8.61328 19.6069H8.6123C7.7177 20.5042 6.5267 20.9975 5.25488 20.9976C3.98317 20.9976 2.79239 20.5047 1.89648 19.6089C1.00065 18.713 0.507913 17.5222 0.507812 16.2505C0.507812 14.9787 1.00066 13.788 1.89648 12.8921L6.66895 8.11768H6.66992C7.56587 7.21992 8.75865 6.7251 10.0322 6.7251Z"
              fill="currentColor" stroke="currentColor"/>
        <path d="M13.9803 18.024C12.5793 18.024 11.2623 17.479 10.2713 16.489C8.43027 14.651 8.20427 11.79 9.73527 9.686C9.87527 9.493 10.1023 9.377 10.3413 9.377C10.5003 9.377 10.6533 9.427 10.7823 9.52C10.9443 9.638 11.0513 9.812 11.0823 10.01C11.1133 10.208 11.0663 10.406 10.9483 10.568C9.85527 12.071 10.0163 14.114 11.3313 15.427C12.0393 16.134 12.9803 16.523 13.9813 16.523C14.9863 16.522 15.9273 16.132 16.6353 15.423L21.4083 10.65C22.1163 9.942 22.5063 9 22.5063 7.998C22.5063 6.996 22.1163 6.055 21.4083 5.346C20.7013 4.639 19.7593 4.25 18.7563 4.25C17.7533 4.25 16.8113 4.639 16.1043 5.346L15.3543 6.096C15.2123 6.238 15.0243 6.316 14.8243 6.316C14.6243 6.316 14.4353 6.238 14.2943 6.096C14.1523 5.955 14.0743 5.766 14.0743 5.566C14.0743 5.366 14.1523 5.177 14.2943 5.036L15.0443 4.286C16.0343 3.296 17.3533 2.75 18.7563 2.75C20.1593 2.75 21.4783 3.295 22.4683 4.286C23.4603 5.277 24.0063 6.596 24.0063 7.998C24.0063 9.4 23.4603 10.719 22.4683 11.71L17.6953 16.483C16.7053 17.475 15.3873 18.022 13.9843 18.023L13.9803 18.024Z"
              fill="currentColor"/>
    </g>
    <defs>
        <clipPath id="clip0_3873_941">
            <rect width="24" height="24" fill="red"/>
        </clipPath>
    </defs>
</svg>
