<svg width="24" height="24" viewBox="0 0 24 24" fill="none" xmlns="http://www.w3.org/2000/svg">
    <g clip-path="url(#clip0_1771_9738)">
        <path d="M15.7461 23.9991C15.3321 23.9991 14.9961 23.6631 14.9961 23.2491V17.9991C14.9961 16.3451 13.6501 14.9991 11.9961 14.9991C10.3421 14.9991 8.99609 16.3451 8.99609 17.9991V23.2461C8.99609 23.6601 8.66009 23.9961 8.24609 23.9961H1.72409C0.774094 23.9941 -0.00090625 23.2191 -0.00390625 22.2701V9.74609C0.0240938 9.20909 0.244094 8.73709 0.614094 8.39509C0.630094 8.38009 0.651094 8.36309 0.672094 8.34709L11.5501 0.147094C11.6791 0.0500938 11.8391 -0.00390625 12.0011 -0.00390625C12.1631 -0.00390625 12.3241 0.0500938 12.4531 0.147094L23.3211 8.34709C23.3411 8.36209 23.3601 8.37809 23.3781 8.39509C23.7481 8.73809 23.9661 9.20209 23.9951 9.70409L23.9961 22.2721C23.9921 23.2221 23.2181 23.9971 22.2691 24.0001L15.7461 23.9991ZM22.2671 22.4991C22.3921 22.4991 22.4961 22.3951 22.4961 22.2681V9.74609C22.4911 9.68009 22.4481 9.58809 22.3801 9.51709L12.0011 1.68609L1.61209 9.51709C1.54209 9.59009 1.50109 9.68609 1.49509 9.78809L1.49609 22.2691C1.49609 22.3941 1.60009 22.4971 1.72609 22.4971H7.49609V17.9991C7.49609 15.5181 9.51509 13.4991 11.9961 13.4991C14.4771 13.4991 16.4961 15.5181 16.4961 17.9991V22.4991H22.2671Z"
              fill="currentColor"/>
    </g>
    <defs>
        <clipPath id="clip0_1771_9738">
            <rect width="24" height="24" fill="white"/>
        </clipPath>
    </defs>
</svg>
