<svg width="24" height="24" viewBox="0 0 24 24" fill="none" xmlns="http://www.w3.org/2000/svg">
    <path fill-rule="evenodd" clip-rule="evenodd"
          d="M21 1.49805C20.1716 1.49805 19.5 2.16962 19.5 2.99805C19.5 3.39581 19.6548 3.75741 19.9075 4.02588C19.919 4.03608 19.9303 4.04669 19.9413 4.05772C19.9522 4.06862 19.9627 4.07978 19.9728 4.09117C20.2412 4.34348 20.6026 4.49805 21 4.49805C21.8284 4.49805 22.5 3.82647 22.5 2.99805C22.5 2.16962 21.8284 1.49805 21 1.49805ZM19.4767 5.58305C19.9231 5.84674 20.4439 5.99805 21 5.99805C22.6569 5.99805 24 4.6549 24 2.99805C24 1.34119 22.6569 -0.00195312 21 -0.00195312C19.3431 -0.00195312 18 1.34119 18 2.99805C18 3.55466 18.1516 4.07588 18.4157 4.52265L16.108 6.8304C15.3723 6.3063 14.4721 5.99805 13.5 5.99805C11.8997 5.99805 10.4945 6.83337 9.69671 8.09177L6.58709 6.22571C6.69267 5.91926 6.75 5.59035 6.75 5.24805C6.75 3.59119 5.40685 2.24805 3.75 2.24805C2.09315 2.24805 0.75 3.59119 0.75 5.24805C0.75 6.9049 2.09315 8.24805 3.75 8.24805C4.52204 8.24805 5.22596 7.95642 5.75762 7.47731L9.11313 9.49092C9.0391 9.81471 9 10.1518 9 10.498C9 11.4699 9.30809 12.3698 9.83194 13.1054L4.52398 18.4134C4.07734 18.1495 3.55636 17.998 3 17.998C1.34315 17.998 0 19.3412 0 20.998C0 22.6549 1.34315 23.998 3 23.998C4.65685 23.998 6 22.6549 6 20.998C6 20.4417 5.84855 19.9207 5.58464 19.4741L10.8926 14.1661C11.4348 14.5522 12.0663 14.8211 12.75 14.9358V18.0926C11.4561 18.4256 10.5 19.6002 10.5 20.998C10.5 22.6549 11.8431 23.998 13.5 23.998C15.1569 23.998 16.5 22.6549 16.5 20.998C16.5 19.6002 15.5439 18.4256 14.25 18.0926V14.9358C15.2989 14.7599 16.2248 14.221 16.8941 13.4528L18.1756 14.7343C18.0619 15.051 18 15.3923 18 15.748C18 17.4049 19.3431 18.748 21 18.748C22.6569 18.748 24 17.4049 24 15.748C24 14.0912 22.6569 12.748 21 12.748C20.2506 12.748 19.5654 13.0228 19.0397 13.4771L17.6943 12.1317C17.8917 11.6253 18 11.0743 18 10.498C18 9.52643 17.6921 8.62674 17.1685 7.89123L19.4767 5.58305ZM15.59 8.34587C15.5999 8.35694 15.6101 8.36777 15.6207 8.37838C15.6312 8.38891 15.642 8.39907 15.653 8.40884C16.1772 8.94901 16.5 9.68583 16.5 10.498C16.5 12.1549 15.1569 13.498 13.5 13.498C12.6958 13.498 11.9656 13.1816 11.4269 12.6665C11.4126 12.6494 11.3974 12.6328 11.3813 12.6167C11.3652 12.6006 11.3486 12.5854 11.3315 12.5711C10.8164 12.0325 10.5 11.3022 10.5 10.498C10.5 10.1288 10.5667 9.77521 10.6887 9.44855C10.6975 9.42848 10.7053 9.40818 10.7122 9.3877C11.1535 8.28051 12.2354 7.49805 13.5 7.49805C14.3126 7.49805 15.0498 7.82114 15.59 8.34587ZM19.7063 14.9885C19.7154 14.9746 19.724 14.9605 19.7321 14.9462C19.998 14.5266 20.4665 14.248 21 14.248C21.8284 14.248 22.5 14.9196 22.5 15.748C22.5 16.5765 21.8284 17.248 21 17.248C20.1716 17.248 19.5 16.5765 19.5 15.748C19.5 15.4709 19.5752 15.2113 19.7063 14.9885ZM4.03367 19.9111C4.04207 19.9203 4.05073 19.9294 4.05967 19.9384C4.06861 19.9473 4.07772 19.956 4.08698 19.9644C4.34292 20.2334 4.5 20.5974 4.5 20.998C4.5 21.8265 3.82843 22.498 3 22.498C2.17157 22.498 1.5 21.8265 1.5 20.998C1.5 20.1696 2.17157 19.498 3 19.498C3.40065 19.498 3.76462 19.6551 4.03367 19.9111ZM4.99858 6.07962C4.99313 6.08732 4.9878 6.09514 4.9826 6.10309C4.7117 6.49288 4.26065 6.74805 3.75 6.74805C2.92157 6.74805 2.25 6.07647 2.25 5.24805C2.25 4.41962 2.92157 3.74805 3.75 3.74805C4.57843 3.74805 5.25 4.41962 5.25 5.24805C5.25 5.55565 5.15741 5.84162 4.99858 6.07962ZM13.5 19.498C12.6716 19.498 12 20.1696 12 20.998C12 21.8265 12.6716 22.498 13.5 22.498C14.3284 22.498 15 21.8265 15 20.998C15 20.1696 14.3284 19.498 13.5 19.498Z"
          fill="currentColor"/>
</svg>
