<svg width="24" height="24" viewBox="0 0 24 24" fill="none" xmlns="http://www.w3.org/2000/svg">
    <path fill-rule="evenodd" clip-rule="evenodd"
          d="M17.25 1.5C16.2116 1.5 15.1966 1.80791 14.3333 2.38478C13.4699 2.96166 12.797 3.7816 12.3996 4.74091C12.0023 5.70022 11.8983 6.75582 12.1009 7.77422C12.3035 8.79262 12.8035 9.72808 13.5377 10.4623C14.2719 11.1965 15.2074 11.6965 16.2258 11.8991C17.2442 12.1017 18.2998 11.9977 19.2591 11.6004C20.2184 11.203 21.0383 10.5301 21.6152 9.66674C22.1921 8.80339 22.5 7.78835 22.5 6.75C22.5 6.33579 22.8358 6 23.25 6C23.6642 6 24 6.33579 24 6.75C24 8.08502 23.6041 9.39007 22.8624 10.5001C22.1207 11.6101 21.0665 12.4753 19.8331 12.9862C18.5997 13.4971 17.2425 13.6308 15.9331 13.3703C14.6238 13.1098 13.421 12.467 12.477 11.523C11.533 10.579 10.8902 9.37623 10.6297 8.06686C10.3692 6.75749 10.5029 5.40029 11.0138 4.16689C11.5247 2.93349 12.3899 1.87928 13.4999 1.13758C14.6099 0.395881 15.915 0 17.25 0C17.6642 0 18 0.335786 18 0.75C18 1.16421 17.6642 1.5 17.25 1.5ZM23.7804 1.71972C24.0732 2.01264 24.0732 2.48751 23.7803 2.78038L18.3107 8.24895C18.1715 8.38837 18.0061 8.49898 17.8241 8.57445C17.6421 8.64991 17.447 8.68875 17.25 8.68875C17.053 8.68875 16.8579 8.64991 16.6759 8.57445C16.4941 8.49908 16.3289 8.38865 16.1898 8.24948L14.4698 6.53048C14.1768 6.23768 14.1767 5.7628 14.4695 5.46982C14.7623 5.17685 15.2372 5.17671 15.5302 5.46952L17.25 7.18834L22.7197 1.71962C23.0126 1.42675 23.4875 1.4268 23.7804 1.71972ZM3.75 4.5C3.15326 4.5 2.58097 4.73705 2.15901 5.15901C1.73705 5.58097 1.5 6.15326 1.5 6.75V16.5H22.5V14.25C22.5 13.8358 22.8358 13.5 23.25 13.5C23.6642 13.5 24 13.8358 24 14.25V17.25C24 18.2446 23.6049 19.1984 22.9017 19.9017C22.1984 20.6049 21.2446 21 20.25 21H15.9606L16.3356 22.5H18C18.4142 22.5 18.75 22.8358 18.75 23.25C18.75 23.6642 18.4142 24 18 24H6C5.58579 24 5.25 23.6642 5.25 23.25C5.25 22.8358 5.58579 22.5 6 22.5H7.66442L8.03942 21H3.75C2.75544 21 1.80161 20.6049 1.09835 19.9017C0.395088 19.1984 0 18.2446 0 17.25V6.75C0 5.75544 0.395088 4.80161 1.09835 4.09835C1.80161 3.39509 2.75544 3 3.75 3H8.25C8.66421 3 9 3.33579 9 3.75C9 4.16421 8.66421 4.5 8.25 4.5H3.75ZM20.25 19.5C20.8467 19.5 21.419 19.2629 21.841 18.841C22.0805 18.6014 22.2605 18.3134 22.3713 18H1.62868C1.7395 18.3134 1.91946 18.6014 2.15901 18.841C2.58097 19.2629 3.15326 19.5 3.75 19.5H20.25ZM9.58558 21L9.21058 22.5H14.7894L14.4144 21H9.58558Z"
          fill="currentColor"/>
</svg>
