<?xml version="1.0" encoding="UTF-8"?>
<svg width="205px" height="44px" viewBox="0 0 205 44" version="1.1" xmlns="http://www.w3.org/2000/svg" xmlns:xlink="http://www.w3.org/1999/xlink">
    <title>SDS Logo</title>
    <g id="SDS-Logo" stroke="none" stroke-width="1" fill="none" fill-rule="evenodd">
        <g id="surf" fill-rule="nonzero">
            <path d="M79.4249799,26.5844182 C83.0557022,26.5844182 86,29.5393337 86,33.1848907 L86,37.4011952 C86,41.0463817 83.0557022,44 79.4249799,44 L69.6120075,44 C65.9812852,44 63.0382794,41.0463817 63.0382794,37.4011952 L63.0382794,34.7972524 C63.0382794,30.2616628 59.3756262,26.5846035 54.8574801,26.5846035 L8.18079933,26.5846035 C3.66320701,26.5846035 0,22.9073588 0,18.3706574 L0,8.21394608 C0,3.67780057 3.66320701,0 8.18079933,0 L54.8574801,0 C59.3756262,0 63.0382794,3.67780057 63.0382794,8.21394608 L63.0382794,18.3706574 C63.0382794,22.9073588 66.7009327,26.5846035 71.2203708,26.5846035 L79.4249799,26.5846035 L79.4249799,26.5844182 Z" id="Path" fill="#000000"></path>
            <path d="M14.0741444,15.3705939 C14.0741444,14.7685297 13.2646797,14.5213665 12.223441,14.2276678 L10.1409635,13.6408136 C8.63656447,13.223986 7.3143289,12.2355142 7.3143289,10.5057339 C7.3143289,8.42069049 9.31463897,7 12.0251928,7 C14.1245301,7 16.6035037,7.67938194 16.6035037,8.93077016 C16.6035037,9.70286094 16.1897601,10.1814341 15.4295182,10.1814341 C15.0332158,10.1814341 14.6859424,10.057943 14.2896399,9.93463303 C13.7107864,9.73382424 13.0003488,9.50205215 12.0251928,9.50205215 C11.2314251,9.50205215 10.2399907,9.79556977 10.2399907,10.3824239 C10.2399907,10.9075326 10.6860974,11.1545147 11.6612534,11.432098 L13.9915895,12.096451 C15.5618774,12.5440608 17,13.4244326 17,15.4482738 C17,17.6100917 14.8345801,19 12.0579435,19 C9.72760746,19 7,18.320437 7,17.0692298 C7,16.2971391 7.47924499,15.8185659 8.30615092,15.8185659 C8.73539785,15.8185659 9.13247549,15.9263037 9.57838843,16.0659102 C10.2064649,16.2661758 10.9498469,16.4979479 12.0577497,16.4979479 C13.0005426,16.4977668 14.0741444,16.0968735 14.0741444,15.3705939 Z" id="Path" fill="#FFFFFF"></path>
            <path d="M28.2221366,8.33454678 C28.2221366,7.45012741 28.7039091,7 29.6028788,7 C30.5174745,7 31,7.45012741 31,8.33454678 L31,13.4574081 C31,16.826174 28.6711508,19 25.4917163,19 C22.3280961,19 20,16.826356 20,13.4574081 L20,8.33454678 C20,7.45012741 20.4823372,7 21.3813069,7 C22.2960909,7 22.7780516,7.45012741 22.7780516,8.33454678 L22.7780516,13.4574081 C22.7780516,15.2741172 23.9185664,16.3609392 25.4919046,16.3609392 C27.0816218,16.3609392 28.2221366,15.2741172 28.2221366,13.4574081 L28.2221366,8.33454678 Z" id="Path" fill="#FFFFFF"></path>
            <path d="M38.3828116,15.2366951 L35.8131315,15.2366951 L35.8131315,17.6459266 C35.8131315,18.5435957 35.3250848,19 34.3987494,19 C33.488428,19 33,18.5435957 33,17.6459266 L33,8.35481191 C33,7.45732749 33.488428,7 34.3987494,7 L38.4310443,7 C41.1307431,7 43,8.71687053 43,11.1890607 C43,12.7004385 42.283944,13.8510501 41.0813665,14.4649435 L42.3821253,16.9843988 C42.512144,17.2360489 42.5605674,17.4718209 42.5605674,17.7087007 C42.5605674,18.4959612 41.6344225,18.9998154 40.9349525,18.9998154 C40.4150684,18.9998154 40.041789,18.7005308 39.7806078,18.1342719 L38.3828116,15.2366951 Z M35.8131315,9.59866144 L35.8131315,12.7635818 L38.1872117,12.7635818 C39.2607237,12.7635818 40.1054638,12.2916686 40.1054638,11.1892453 C40.1054638,10.0713132 39.2607237,9.59866144 38.1872117,9.59866144 L35.8131315,9.59866144 Z" id="Shape" fill="#FFFFFF"></path>
            <path d="M48.6588024,14.7172662 L48.6588024,17.6459058 C48.6588024,18.5435886 48.2114679,19 47.3293106,19 C46.46311,19 46,18.5435886 46,17.6459058 L46,8.35483275 C46,7.45733452 46.46311,7 47.3293106,7 L53.7323407,7 C54.5829472,7 55,7.4418254 55,8.29205773 C55,9.15761455 54.5829472,9.59870142 53.7323407,9.59870142 L48.6588024,9.59870142 L48.6588024,12.1187494 L51.8298545,12.1187494 C52.6806423,12.1187494 53.0975138,12.5598363 53.0975138,13.4255777 C53.0975138,14.2761793 52.6806423,14.7174508 51.8298545,14.7174508 L48.6588024,14.7174508 L48.6588024,14.7172662 Z" id="Path" fill="#FFFFFF"></path>
        </g>
        <g id="DESIGN-SYSTEM" transform="translate(74.104000, 7.000000)" fill="#000000" fill-rule="nonzero">
            <path d="M1.21161826,11.8506224 C0.824343015,11.8506224 0.525587828,11.7455048 0.315352697,11.5352697 C0.105117566,11.3250346 1.47415505e-14,11.0262794 1.47415505e-14,10.6390041 L1.47415505e-14,1.36099585 C1.47415505e-14,0.973720609 0.105117566,0.674965422 0.315352697,0.46473029 C0.525587828,0.254495159 0.824343015,0.149377593 1.21161826,0.149377593 L4.54771784,0.149377593 C5.82019364,0.149377593 6.91562932,0.381742739 7.8340249,0.846473029 C8.75242047,1.31120332 9.45504841,1.98063624 9.94190871,2.85477178 C10.428769,3.72890733 10.6721992,4.77455048 10.6721992,5.99170124 C10.6721992,7.20885201 10.4315353,8.25726141 9.95020747,9.13692946 C9.46887967,10.0165975 8.76901798,10.6887967 7.85062241,11.153527 C6.93222683,11.6182573 5.83125864,11.8506224 4.54771784,11.8506224 L1.21161826,11.8506224 Z M4.36514523,9.7593361 C6.85477178,9.7593361 8.09958506,8.50345781 8.09958506,5.99170124 C8.09958506,3.49100968 6.85477178,2.2406639 4.36514523,2.2406639 L2.58921162,2.2406639 L2.58921162,9.7593361 L4.36514523,9.7593361 Z" id="Shape"></path>
            <path d="M13.8755187,11.8506224 C13.4882434,11.8506224 13.1894882,11.7455048 12.9792531,11.5352697 C12.769018,11.3250346 12.6639004,11.0262794 12.6639004,10.6390041 L12.6639004,1.36099585 C12.6639004,0.973720609 12.769018,0.674965422 12.9792531,0.46473029 C13.1894882,0.254495159 13.4882434,0.149377593 13.8755187,0.149377593 L19.7510373,0.149377593 C20.5698479,0.149377593 20.9792531,0.481327801 20.9792531,1.14522822 C20.9792531,1.82019364 20.5698479,2.15767635 19.7510373,2.15767635 L15.186722,2.15767635 L15.186722,4.89626556 L19.4190871,4.89626556 C20.2378976,4.89626556 20.6473029,5.23374827 20.6473029,5.90871369 C20.6473029,6.57261411 20.2378976,6.90456432 19.4190871,6.90456432 L15.186722,6.90456432 L15.186722,9.84232365 L19.7510373,9.84232365 C20.5698479,9.84232365 20.9792531,10.1798064 20.9792531,10.8547718 C20.9792531,11.5186722 20.5698479,11.8506224 19.7510373,11.8506224 L13.8755187,11.8506224 Z" id="Path"></path>
            <path d="M26.5560166,12 C25.6818811,12 24.868603,11.8976487 24.1161826,11.6929461 C23.3637621,11.4882434 22.7496542,11.197787 22.2738589,10.8215768 C22.1078838,10.6998617 21.988935,10.5698479 21.9170124,10.4315353 C21.8450899,10.2932227 21.8091286,10.1189488 21.8091286,9.90871369 C21.8091286,9.63208852 21.8948824,9.38865837 22.06639,9.17842324 C22.2378976,8.96818811 22.4343015,8.86307054 22.6556017,8.86307054 C22.7773167,8.86307054 22.8962656,8.8824343 23.0124481,8.92116183 C23.1286307,8.95988935 23.2697095,9.02904564 23.4356846,9.12863071 C23.9114799,9.42738589 24.3928077,9.64591978 24.879668,9.78423237 C25.3665284,9.92254495 25.9031812,9.99170124 26.4896266,9.99170124 C27.219917,9.99170124 27.7786999,9.86998617 28.1659751,9.62655602 C28.5532503,9.38312586 28.746888,9.03457815 28.746888,8.58091286 C28.746888,8.23789765 28.5670816,7.96127248 28.2074689,7.75103734 C27.8478562,7.54080221 27.208852,7.34163209 26.2904564,7.15352697 C25.2614108,6.94329184 24.439834,6.68879668 23.8257261,6.39004149 C23.2116183,6.09128631 22.7634855,5.72060858 22.4813278,5.2780083 C22.1991701,4.83540802 22.0580913,4.29875519 22.0580913,3.66804979 C22.0580913,2.97095436 22.2600277,2.34301521 22.6639004,1.78423237 C23.0677732,1.22544952 23.626556,0.788381743 24.340249,0.473029046 C25.0539419,0.157676349 25.8589212,0 26.7551867,0 C28.3264177,0 29.6210235,0.392807746 30.6390041,1.17842324 C30.8049793,1.31120332 30.9239281,1.44674965 30.9958506,1.58506224 C31.0677732,1.72337483 31.1037344,1.89211618 31.1037344,2.09128631 C31.1037344,2.36791148 31.0179806,2.61134163 30.846473,2.82157676 C30.6749654,3.03181189 30.4785615,3.13692946 30.2572614,3.13692946 C30.1355463,3.13692946 30.02213,3.12033195 29.9170124,3.08713693 C29.8118949,3.05394191 29.6652835,2.98201936 29.4771784,2.87136929 C29.0235131,2.58367911 28.6058091,2.36791148 28.2240664,2.22406639 C27.8423237,2.0802213 27.3582296,2.00829876 26.7717842,2.00829876 C26.0968188,2.00829876 25.5656985,2.13831259 25.1784232,2.39834025 C24.791148,2.65836791 24.5975104,3.01521438 24.5975104,3.46887967 C24.5975104,3.73443983 24.6721992,3.95297372 24.8215768,4.12448133 C24.9709544,4.29598893 25.219917,4.44813278 25.5684647,4.58091286 C25.9170124,4.71369295 26.4121715,4.85200553 27.0539419,4.99585062 C28.5587828,5.32780083 29.6403873,5.7538036 30.2987552,6.27385892 C30.9571231,6.79391425 31.2863071,7.50760719 31.2863071,8.41493776 C31.2863071,9.1230982 31.0899032,9.74827109 30.6970954,10.2904564 C30.3042877,10.8326418 29.7510373,11.253112 29.0373444,11.5518672 C28.3236515,11.8506224 27.4965422,12 26.5560166,12 Z" id="Path"></path>
            <path d="M34.439834,11.9502075 C34.0414938,11.9502075 33.7261411,11.8340249 33.4937759,11.6016598 C33.2614108,11.3692946 33.1452282,11.0539419 33.1452282,10.6556017 L33.1452282,1.34439834 C33.1452282,0.957123098 33.2614108,0.647302905 33.4937759,0.414937759 C33.7261411,0.182572614 34.0414938,0.0663900415 34.439834,0.0663900415 C34.8381743,0.0663900415 35.153527,0.182572614 35.3858921,0.414937759 C35.6182573,0.647302905 35.7344398,0.957123098 35.7344398,1.34439834 L35.7344398,10.6556017 C35.7344398,11.0539419 35.6182573,11.3692946 35.3858921,11.6016598 C35.153527,11.8340249 34.8381743,11.9502075 34.439834,11.9502075 Z" id="Path"></path>
            <path d="M47.1037344,5.39419087 C47.4135546,5.39419087 47.659751,5.47994467 47.8423237,5.65145228 C48.0248963,5.82295989 48.1161826,6.05809129 48.1161826,6.35684647 L48.1161826,9.593361 C48.1161826,10.0359613 48.0802213,10.3789765 48.0082988,10.6224066 C47.9363762,10.8658368 47.8118949,11.0594744 47.6348548,11.2033195 C47.4578147,11.3471646 47.1922545,11.4688797 46.8381743,11.5684647 C46.406639,11.7012448 45.9114799,11.8063624 45.3526971,11.8838174 C44.7939142,11.9612725 44.2655602,12 43.7676349,12 C42.5283541,12 41.4550484,11.7593361 40.5477178,11.2780083 C39.6403873,10.7966805 38.9432918,10.1051176 38.4564315,9.2033195 C37.9695712,8.30152144 37.7261411,7.23098202 37.7261411,5.99170124 C37.7261411,4.77455048 37.966805,3.71507607 38.4481328,2.81327801 C38.9294606,1.91147994 39.6182573,1.21715076 40.5145228,0.730290456 C41.4107884,0.243430152 42.4564315,0 43.6514523,0 C45.1894882,0 46.461964,0.398340249 47.4688797,1.19502075 C47.6348548,1.32780083 47.7510373,1.46058091 47.8174274,1.593361 C47.8838174,1.72614108 47.9170124,1.89211618 47.9170124,2.09128631 C47.9170124,2.37897649 47.8367911,2.62517289 47.6763485,2.82987552 C47.5159059,3.03457815 47.3250346,3.13692946 47.1037344,3.13692946 C46.9598893,3.13692946 46.8298755,3.11479945 46.7136929,3.07053942 C46.5975104,3.02627939 46.4564315,2.95435685 46.2904564,2.85477178 C45.8257261,2.5670816 45.3997234,2.36237898 45.0124481,2.2406639 C44.6251729,2.11894882 44.1991701,2.05809129 43.7344398,2.05809129 C41.4771784,2.05809129 40.3485477,3.36929461 40.3485477,5.99170124 C40.3485477,7.34163209 40.6417704,8.34854772 41.2282158,9.01244813 C41.8146611,9.67634855 42.6998617,10.0082988 43.8838174,10.0082988 C44.5255878,10.0082988 45.1618257,9.9253112 45.7925311,9.7593361 L45.7925311,7.18672199 L44.2655602,7.18672199 C43.944675,7.18672199 43.6957123,7.10926694 43.5186722,6.95435685 C43.3416321,6.79944675 43.253112,6.57814661 43.253112,6.29045643 C43.253112,6.00276625 43.3416321,5.78146611 43.5186722,5.62655602 C43.6957123,5.47164592 43.944675,5.39419087 44.2655602,5.39419087 L47.1037344,5.39419087 Z" id="Path"></path>
            <path d="M59.2365145,0.0663900415 C59.6016598,0.0663900415 59.8976487,0.185338866 60.1244813,0.423236515 C60.351314,0.661134163 60.4647303,0.968188105 60.4647303,1.34439834 L60.4647303,10.6556017 C60.4647303,11.0428769 60.351314,11.3554633 60.1244813,11.593361 C59.8976487,11.8312586 59.6016598,11.9502075 59.2365145,11.9502075 C58.8381743,11.9502075 58.5172891,11.8063624 58.2738589,11.5186722 L52.7136929,4.39834025 L52.7136929,10.6556017 C52.7136929,11.0428769 52.6058091,11.3554633 52.3900415,11.593361 C52.1742739,11.8312586 51.8838174,11.9502075 51.5186722,11.9502075 C51.153527,11.9502075 50.8603043,11.8312586 50.6390041,11.593361 C50.417704,11.3554633 50.3070539,11.0428769 50.3070539,10.6556017 L50.3070539,1.34439834 C50.3070539,0.968188105 50.4204703,0.661134163 50.6473029,0.423236515 C50.8741355,0.185338866 51.1701245,0.0663900415 51.5352697,0.0663900415 C51.944675,0.0663900415 52.2600277,0.210235131 52.4813278,0.497925311 L58.0414938,7.56846473 L58.0414938,1.34439834 C58.0414938,0.968188105 58.1521438,0.661134163 58.373444,0.423236515 C58.5947441,0.185338866 58.8824343,0.0663900415 59.2365145,0.0663900415 Z" id="Path"></path>
            <path d="M71.6348548,12 C70.7607192,12 69.9474412,11.8976487 69.1950207,11.6929461 C68.4426003,11.4882434 67.8284924,11.197787 67.3526971,10.8215768 C67.186722,10.6998617 67.0677732,10.5698479 66.9958506,10.4315353 C66.9239281,10.2932227 66.8879668,10.1189488 66.8879668,9.90871369 C66.8879668,9.63208852 66.9737206,9.38865837 67.1452282,9.17842324 C67.3167358,8.96818811 67.5131397,8.86307054 67.7344398,8.86307054 C67.8561549,8.86307054 67.9751037,8.8824343 68.0912863,8.92116183 C68.2074689,8.95988935 68.3485477,9.02904564 68.5145228,9.12863071 C68.9903181,9.42738589 69.4716459,9.64591978 69.9585062,9.78423237 C70.4453665,9.92254495 70.9820194,9.99170124 71.5684647,9.99170124 C72.2987552,9.99170124 72.857538,9.86998617 73.2448133,9.62655602 C73.6320885,9.38312586 73.8257261,9.03457815 73.8257261,8.58091286 C73.8257261,8.23789765 73.6459198,7.96127248 73.2863071,7.75103734 C72.9266943,7.54080221 72.2876902,7.34163209 71.3692946,7.15352697 C70.340249,6.94329184 69.5186722,6.68879668 68.9045643,6.39004149 C68.2904564,6.09128631 67.8423237,5.72060858 67.560166,5.2780083 C67.2780083,4.83540802 67.1369295,4.29875519 67.1369295,3.66804979 C67.1369295,2.97095436 67.3388658,2.34301521 67.7427386,1.78423237 C68.1466113,1.22544952 68.7053942,0.788381743 69.4190871,0.473029046 C70.1327801,0.157676349 70.9377593,0 71.8340249,0 C73.4052559,0 74.6998617,0.392807746 75.7178423,1.17842324 C75.8838174,1.31120332 76.0027663,1.44674965 76.0746888,1.58506224 C76.1466113,1.72337483 76.1825726,1.89211618 76.1825726,2.09128631 C76.1825726,2.36791148 76.0968188,2.61134163 75.9253112,2.82157676 C75.7538036,3.03181189 75.5573997,3.13692946 75.3360996,3.13692946 C75.2143845,3.13692946 75.1009682,3.12033195 74.9958506,3.08713693 C74.8907331,3.05394191 74.7441217,2.98201936 74.5560166,2.87136929 C74.1023513,2.58367911 73.6846473,2.36791148 73.3029046,2.22406639 C72.9211618,2.0802213 72.4370678,2.00829876 71.8506224,2.00829876 C71.175657,2.00829876 70.6445367,2.13831259 70.2572614,2.39834025 C69.8699862,2.65836791 69.6763485,3.01521438 69.6763485,3.46887967 C69.6763485,3.73443983 69.7510373,3.95297372 69.9004149,4.12448133 C70.0497925,4.29598893 70.2987552,4.44813278 70.6473029,4.58091286 C70.9958506,4.71369295 71.4910097,4.85200553 72.1327801,4.99585062 C73.637621,5.32780083 74.7192254,5.7538036 75.3775934,6.27385892 C76.0359613,6.79391425 76.3651452,7.50760719 76.3651452,8.41493776 C76.3651452,9.1230982 76.1687414,9.74827109 75.7759336,10.2904564 C75.3831259,10.8326418 74.8298755,11.253112 74.1161826,11.5518672 C73.4024896,11.8506224 72.5753804,12 71.6348548,12 Z" id="Path"></path>
            <path d="M85.1784232,0.481327801 C85.4218534,0.193637621 85.7095436,0.0497925311 86.0414938,0.0497925311 C86.351314,0.0497925311 86.6307054,0.168741355 86.879668,0.406639004 C87.1286307,0.644536653 87.253112,0.918395574 87.253112,1.22821577 C87.253112,1.50484094 87.1479945,1.7648686 86.9377593,2.00829876 L83.3029046,6.32365145 L83.3029046,10.6556017 C83.3029046,11.0760719 83.1811895,11.3969571 82.9377593,11.6182573 C82.6943292,11.8395574 82.3900415,11.9502075 82.0248963,11.9502075 C81.637621,11.9502075 81.3222683,11.8395574 81.0788382,11.6182573 C80.835408,11.3969571 80.7136929,11.0760719 80.7136929,10.6556017 L80.7136929,6.32365145 L77.1120332,2.00829876 C76.9017981,1.78699862 76.7966805,1.52697095 76.7966805,1.22821577 C76.7966805,0.918395574 76.9156293,0.644536653 77.153527,0.406639004 C77.3914246,0.168741355 77.6652835,0.0497925311 77.9751037,0.0497925311 C78.3070539,0.0497925311 78.5947441,0.193637621 78.8381743,0.481327801 L82.0082988,4.34854772 L85.1784232,0.481327801 Z" id="Path"></path>
            <path d="M92.3319502,12 C91.4578147,12 90.6445367,11.8976487 89.8921162,11.6929461 C89.1396957,11.4882434 88.5255878,11.197787 88.0497925,10.8215768 C87.8838174,10.6998617 87.7648686,10.5698479 87.6929461,10.4315353 C87.6210235,10.2932227 87.5850622,10.1189488 87.5850622,9.90871369 C87.5850622,9.63208852 87.670816,9.38865837 87.8423237,9.17842324 C88.0138313,8.96818811 88.2102351,8.86307054 88.4315353,8.86307054 C88.5532503,8.86307054 88.6721992,8.8824343 88.7883817,8.92116183 C88.9045643,8.95988935 89.0456432,9.02904564 89.2116183,9.12863071 C89.6874136,9.42738589 90.1687414,9.64591978 90.6556017,9.78423237 C91.142462,9.92254495 91.6791148,9.99170124 92.2655602,9.99170124 C92.9958506,9.99170124 93.5546335,9.86998617 93.9419087,9.62655602 C94.329184,9.38312586 94.5228216,9.03457815 94.5228216,8.58091286 C94.5228216,8.23789765 94.3430152,7.96127248 93.9834025,7.75103734 C93.6237898,7.54080221 92.9847856,7.34163209 92.06639,7.15352697 C91.0373444,6.94329184 90.2157676,6.68879668 89.6016598,6.39004149 C88.9875519,6.09128631 88.5394191,5.72060858 88.2572614,5.2780083 C87.9751037,4.83540802 87.8340249,4.29875519 87.8340249,3.66804979 C87.8340249,2.97095436 88.0359613,2.34301521 88.439834,1.78423237 C88.8437068,1.22544952 89.4024896,0.788381743 90.1161826,0.473029046 C90.8298755,0.157676349 91.6348548,0 92.5311203,0 C94.1023513,0 95.3969571,0.392807746 96.4149378,1.17842324 C96.5809129,1.31120332 96.6998617,1.44674965 96.7717842,1.58506224 C96.8437068,1.72337483 96.879668,1.89211618 96.879668,2.09128631 C96.879668,2.36791148 96.7939142,2.61134163 96.6224066,2.82157676 C96.450899,3.03181189 96.2544952,3.13692946 96.033195,3.13692946 C95.9114799,3.13692946 95.7980636,3.12033195 95.6929461,3.08713693 C95.5878285,3.05394191 95.4412172,2.98201936 95.253112,2.87136929 C94.7994467,2.58367911 94.3817427,2.36791148 94,2.22406639 C93.6182573,2.0802213 93.1341632,2.00829876 92.5477178,2.00829876 C91.8727524,2.00829876 91.3416321,2.13831259 90.9543568,2.39834025 C90.5670816,2.65836791 90.373444,3.01521438 90.373444,3.46887967 C90.373444,3.73443983 90.4481328,3.95297372 90.5975104,4.12448133 C90.746888,4.29598893 90.9958506,4.44813278 91.3443983,4.58091286 C91.6929461,4.71369295 92.1881051,4.85200553 92.8298755,4.99585062 C94.3347165,5.32780083 95.4163209,5.7538036 96.0746888,6.27385892 C96.7330567,6.79391425 97.0622407,7.50760719 97.0622407,8.41493776 C97.0622407,9.1230982 96.8658368,9.74827109 96.473029,10.2904564 C96.0802213,10.8326418 95.526971,11.253112 94.813278,11.5518672 C94.0995851,11.8506224 93.2724758,12 92.3319502,12 Z" id="Path"></path>
            <path d="M102.672199,11.93361 C102.284924,11.93361 101.972337,11.8174274 101.73444,11.5850622 C101.496542,11.3526971 101.377593,11.0428769 101.377593,10.6556017 L101.377593,2.25726141 L98.6887967,2.25726141 C97.8699862,2.25726141 97.4605809,1.90318119 97.4605809,1.19502075 C97.4605809,0.497925311 97.8699862,0.149377593 98.6887967,0.149377593 L106.655602,0.149377593 C107.474412,0.149377593 107.883817,0.497925311 107.883817,1.19502075 C107.883817,1.90318119 107.474412,2.25726141 106.655602,2.25726141 L103.966805,2.25726141 L103.966805,10.6556017 C103.966805,11.0428769 103.850622,11.3526971 103.618257,11.5850622 C103.385892,11.8174274 103.070539,11.93361 102.672199,11.93361 Z" id="Path"></path>
            <path d="M110.207469,11.8506224 C109.820194,11.8506224 109.521438,11.7455048 109.311203,11.5352697 C109.100968,11.3250346 108.995851,11.0262794 108.995851,10.6390041 L108.995851,1.36099585 C108.995851,0.973720609 109.100968,0.674965422 109.311203,0.46473029 C109.521438,0.254495159 109.820194,0.149377593 110.207469,0.149377593 L116.082988,0.149377593 C116.901798,0.149377593 117.311203,0.481327801 117.311203,1.14522822 C117.311203,1.82019364 116.901798,2.15767635 116.082988,2.15767635 L111.518672,2.15767635 L111.518672,4.89626556 L115.751037,4.89626556 C116.569848,4.89626556 116.979253,5.23374827 116.979253,5.90871369 C116.979253,6.57261411 116.569848,6.90456432 115.751037,6.90456432 L111.518672,6.90456432 L111.518672,9.84232365 L116.082988,9.84232365 C116.901798,9.84232365 117.311203,10.1798064 117.311203,10.8547718 C117.311203,11.5186722 116.901798,11.8506224 116.082988,11.8506224 L110.207469,11.8506224 Z" id="Path"></path>
            <path d="M129.228216,0.0663900415 C129.593361,0.0663900415 129.88935,0.185338866 130.116183,0.423236515 C130.343015,0.661134163 130.456432,0.968188105 130.456432,1.34439834 L130.456432,10.7717842 C130.456432,11.1369295 130.351314,11.4246196 130.141079,11.6348548 C129.930844,11.8450899 129.654219,11.9502075 129.311203,11.9502075 C128.979253,11.9502075 128.70816,11.8450899 128.497925,11.6348548 C128.28769,11.4246196 128.182573,11.1369295 128.182573,10.7717842 L128.182573,4.91286307 L125.825726,9.34439834 C125.670816,9.63208852 125.502075,9.84232365 125.319502,9.97510373 C125.136929,10.1078838 124.918396,10.1742739 124.6639,10.1742739 C124.42047,10.1742739 124.204703,10.1078838 124.016598,9.97510373 C123.828492,9.84232365 123.656985,9.63208852 123.502075,9.34439834 L121.145228,4.99585062 L121.145228,10.7717842 C121.145228,11.1258645 121.040111,11.4107884 120.829876,11.626556 C120.61964,11.8423237 120.343015,11.9502075 120,11.9502075 C119.66805,11.9502075 119.396957,11.8450899 119.186722,11.6348548 C118.976487,11.4246196 118.871369,11.1369295 118.871369,10.7717842 L118.871369,1.34439834 C118.871369,0.968188105 118.984786,0.661134163 119.211618,0.423236515 C119.438451,0.185338866 119.73444,0.0663900415 120.099585,0.0663900415 C120.630705,0.0663900415 121.034578,0.348547718 121.311203,0.912863071 L124.680498,7.30290456 L128.033195,0.912863071 C128.33195,0.348547718 128.73029,0.0663900415 129.228216,0.0663900415 Z" id="Path"></path>
        </g>
    </g>
</svg>